<?xml version="1.0" encoding="utf-8" standalone="no"?>
<!DOCTYPE svg PUBLIC "-//W3C//DTD SVG 1.1//EN"
  "http://www.w3.org/Graphics/SVG/1.1/DTD/svg11.dtd">
<svg xmlns:xlink="http://www.w3.org/1999/xlink" width="625.089175pt" height="310.86825pt" viewBox="0 0 625.089175 310.86825" xmlns="http://www.w3.org/2000/svg" version="1.1">
 <metadata>
  <rdf:RDF xmlns:dc="http://purl.org/dc/elements/1.1/" xmlns:cc="http://creativecommons.org/ns#" xmlns:rdf="http://www.w3.org/1999/02/22-rdf-syntax-ns#">
   <cc:Work>
    <dc:type rdf:resource="http://purl.org/dc/dcmitype/StillImage"/>
    <dc:date>2024-09-04T13:20:31.287457</dc:date>
    <dc:format>image/svg+xml</dc:format>
    <dc:creator>
     <cc:Agent>
      <dc:title>Matplotlib v3.9.2, https://matplotlib.org/</dc:title>
     </cc:Agent>
    </dc:creator>
   </cc:Work>
  </rdf:RDF>
 </metadata>
 <defs>
  <style type="text/css">*{stroke-linejoin: round; stroke-linecap: butt}</style>
 </defs>
 <g id="figure_1">
  <g id="patch_1">
   <path d="M 0 310.86825 
L 625.089175 310.86825 
L 625.089175 0 
L 0 0 
z
" style="fill: #ffffff"/>
  </g>
  <g id="axes_1">
   <g id="patch_2">
    <path d="M 50.14375 273.312 
L 407.26375 273.312 
L 407.26375 7.2 
L 50.14375 7.2 
z
" style="fill: #ffffff"/>
   </g>
   <g id="matplotlib.axis_1">
    <g id="xtick_1">
     <g id="line2d_1">
      <defs>
       <path id="mbd8a3b84af" d="M 0 0 
L 0 3.5 
" style="stroke: #000000; stroke-width: 0.8"/>
      </defs>
      <g>
       <use xlink:href="#mbd8a3b84af" x="66.376477" y="273.312" style="stroke: #000000; stroke-width: 0.8"/>
      </g>
     </g>
     <g id="text_1">
      <!-- 0 -->
      <g transform="translate(63.195227 287.910437) scale(0.1 -0.1)">
       <defs>
        <path id="DejaVuSans-30" d="M 2034 4250 
Q 1547 4250 1301 3770 
Q 1056 3291 1056 2328 
Q 1056 1369 1301 889 
Q 1547 409 2034 409 
Q 2525 409 2770 889 
Q 3016 1369 3016 2328 
Q 3016 3291 2770 3770 
Q 2525 4250 2034 4250 
z
M 2034 4750 
Q 2819 4750 3233 4129 
Q 3647 3509 3647 2328 
Q 3647 1150 3233 529 
Q 2819 -91 2034 -91 
Q 1250 -91 836 529 
Q 422 1150 422 2328 
Q 422 3509 836 4129 
Q 1250 4750 2034 4750 
z
" transform="scale(0.015625)"/>
       </defs>
       <use xlink:href="#DejaVuSans-30"/>
      </g>
     </g>
    </g>
    <g id="xtick_2">
     <g id="line2d_2">
      <g>
       <use xlink:href="#mbd8a3b84af" x="131.307386" y="273.312" style="stroke: #000000; stroke-width: 0.8"/>
      </g>
     </g>
     <g id="text_2">
      <!-- 1 -->
      <g transform="translate(128.126136 287.910437) scale(0.1 -0.1)">
       <defs>
        <path id="DejaVuSans-31" d="M 794 531 
L 1825 531 
L 1825 4091 
L 703 3866 
L 703 4441 
L 1819 4666 
L 2450 4666 
L 2450 531 
L 3481 531 
L 3481 0 
L 794 0 
L 794 531 
z
" transform="scale(0.015625)"/>
       </defs>
       <use xlink:href="#DejaVuSans-31"/>
      </g>
     </g>
    </g>
    <g id="xtick_3">
     <g id="line2d_3">
      <g>
       <use xlink:href="#mbd8a3b84af" x="196.238295" y="273.312" style="stroke: #000000; stroke-width: 0.8"/>
      </g>
     </g>
     <g id="text_3">
      <!-- 2 -->
      <g transform="translate(193.057045 287.910437) scale(0.1 -0.1)">
       <defs>
        <path id="DejaVuSans-32" d="M 1228 531 
L 3431 531 
L 3431 0 
L 469 0 
L 469 531 
Q 828 903 1448 1529 
Q 2069 2156 2228 2338 
Q 2531 2678 2651 2914 
Q 2772 3150 2772 3378 
Q 2772 3750 2511 3984 
Q 2250 4219 1831 4219 
Q 1534 4219 1204 4116 
Q 875 4013 500 3803 
L 500 4441 
Q 881 4594 1212 4672 
Q 1544 4750 1819 4750 
Q 2544 4750 2975 4387 
Q 3406 4025 3406 3419 
Q 3406 3131 3298 2873 
Q 3191 2616 2906 2266 
Q 2828 2175 2409 1742 
Q 1991 1309 1228 531 
z
" transform="scale(0.015625)"/>
       </defs>
       <use xlink:href="#DejaVuSans-32"/>
      </g>
     </g>
    </g>
    <g id="xtick_4">
     <g id="line2d_4">
      <g>
       <use xlink:href="#mbd8a3b84af" x="261.169205" y="273.312" style="stroke: #000000; stroke-width: 0.8"/>
      </g>
     </g>
     <g id="text_4">
      <!-- 3 -->
      <g transform="translate(257.987955 287.910437) scale(0.1 -0.1)">
       <defs>
        <path id="DejaVuSans-33" d="M 2597 2516 
Q 3050 2419 3304 2112 
Q 3559 1806 3559 1356 
Q 3559 666 3084 287 
Q 2609 -91 1734 -91 
Q 1441 -91 1130 -33 
Q 819 25 488 141 
L 488 750 
Q 750 597 1062 519 
Q 1375 441 1716 441 
Q 2309 441 2620 675 
Q 2931 909 2931 1356 
Q 2931 1769 2642 2001 
Q 2353 2234 1838 2234 
L 1294 2234 
L 1294 2753 
L 1863 2753 
Q 2328 2753 2575 2939 
Q 2822 3125 2822 3475 
Q 2822 3834 2567 4026 
Q 2313 4219 1838 4219 
Q 1578 4219 1281 4162 
Q 984 4106 628 3988 
L 628 4550 
Q 988 4650 1302 4700 
Q 1616 4750 1894 4750 
Q 2613 4750 3031 4423 
Q 3450 4097 3450 3541 
Q 3450 3153 3228 2886 
Q 3006 2619 2597 2516 
z
" transform="scale(0.015625)"/>
       </defs>
       <use xlink:href="#DejaVuSans-33"/>
      </g>
     </g>
    </g>
    <g id="xtick_5">
     <g id="line2d_5">
      <g>
       <use xlink:href="#mbd8a3b84af" x="326.100114" y="273.312" style="stroke: #000000; stroke-width: 0.8"/>
      </g>
     </g>
     <g id="text_5">
      <!-- 4 -->
      <g transform="translate(322.918864 287.910437) scale(0.1 -0.1)">
       <defs>
        <path id="DejaVuSans-34" d="M 2419 4116 
L 825 1625 
L 2419 1625 
L 2419 4116 
z
M 2253 4666 
L 3047 4666 
L 3047 1625 
L 3713 1625 
L 3713 1100 
L 3047 1100 
L 3047 0 
L 2419 0 
L 2419 1100 
L 313 1100 
L 313 1709 
L 2253 4666 
z
" transform="scale(0.015625)"/>
       </defs>
       <use xlink:href="#DejaVuSans-34"/>
      </g>
     </g>
    </g>
    <g id="xtick_6">
     <g id="line2d_6">
      <g>
       <use xlink:href="#mbd8a3b84af" x="391.031023" y="273.312" style="stroke: #000000; stroke-width: 0.8"/>
      </g>
     </g>
     <g id="text_6">
      <!-- 5 -->
      <g transform="translate(387.849773 287.910437) scale(0.1 -0.1)">
       <defs>
        <path id="DejaVuSans-35" d="M 691 4666 
L 3169 4666 
L 3169 4134 
L 1269 4134 
L 1269 2991 
Q 1406 3038 1543 3061 
Q 1681 3084 1819 3084 
Q 2600 3084 3056 2656 
Q 3513 2228 3513 1497 
Q 3513 744 3044 326 
Q 2575 -91 1722 -91 
Q 1428 -91 1123 -41 
Q 819 9 494 109 
L 494 744 
Q 775 591 1075 516 
Q 1375 441 1709 441 
Q 2250 441 2565 725 
Q 2881 1009 2881 1497 
Q 2881 1984 2565 2268 
Q 2250 2553 1709 2553 
Q 1456 2553 1204 2497 
Q 953 2441 691 2322 
L 691 4666 
z
" transform="scale(0.015625)"/>
       </defs>
       <use xlink:href="#DejaVuSans-35"/>
      </g>
     </g>
    </g>
    <g id="text_7">
     <!-- Time (ms) -->
     <g transform="translate(203.504531 301.588562) scale(0.1 -0.1)">
      <defs>
       <path id="DejaVuSans-54" d="M -19 4666 
L 3928 4666 
L 3928 4134 
L 2272 4134 
L 2272 0 
L 1638 0 
L 1638 4134 
L -19 4134 
L -19 4666 
z
" transform="scale(0.015625)"/>
       <path id="DejaVuSans-69" d="M 603 3500 
L 1178 3500 
L 1178 0 
L 603 0 
L 603 3500 
z
M 603 4863 
L 1178 4863 
L 1178 4134 
L 603 4134 
L 603 4863 
z
" transform="scale(0.015625)"/>
       <path id="DejaVuSans-6d" d="M 3328 2828 
Q 3544 3216 3844 3400 
Q 4144 3584 4550 3584 
Q 5097 3584 5394 3201 
Q 5691 2819 5691 2113 
L 5691 0 
L 5113 0 
L 5113 2094 
Q 5113 2597 4934 2840 
Q 4756 3084 4391 3084 
Q 3944 3084 3684 2787 
Q 3425 2491 3425 1978 
L 3425 0 
L 2847 0 
L 2847 2094 
Q 2847 2600 2669 2842 
Q 2491 3084 2119 3084 
Q 1678 3084 1418 2786 
Q 1159 2488 1159 1978 
L 1159 0 
L 581 0 
L 581 3500 
L 1159 3500 
L 1159 2956 
Q 1356 3278 1631 3431 
Q 1906 3584 2284 3584 
Q 2666 3584 2933 3390 
Q 3200 3197 3328 2828 
z
" transform="scale(0.015625)"/>
       <path id="DejaVuSans-65" d="M 3597 1894 
L 3597 1613 
L 953 1613 
Q 991 1019 1311 708 
Q 1631 397 2203 397 
Q 2534 397 2845 478 
Q 3156 559 3463 722 
L 3463 178 
Q 3153 47 2828 -22 
Q 2503 -91 2169 -91 
Q 1331 -91 842 396 
Q 353 884 353 1716 
Q 353 2575 817 3079 
Q 1281 3584 2069 3584 
Q 2775 3584 3186 3129 
Q 3597 2675 3597 1894 
z
M 3022 2063 
Q 3016 2534 2758 2815 
Q 2500 3097 2075 3097 
Q 1594 3097 1305 2825 
Q 1016 2553 972 2059 
L 3022 2063 
z
" transform="scale(0.015625)"/>
       <path id="DejaVuSans-20" transform="scale(0.015625)"/>
       <path id="DejaVuSans-28" d="M 1984 4856 
Q 1566 4138 1362 3434 
Q 1159 2731 1159 2009 
Q 1159 1288 1364 580 
Q 1569 -128 1984 -844 
L 1484 -844 
Q 1016 -109 783 600 
Q 550 1309 550 2009 
Q 550 2706 781 3412 
Q 1013 4119 1484 4856 
L 1984 4856 
z
" transform="scale(0.015625)"/>
       <path id="DejaVuSans-73" d="M 2834 3397 
L 2834 2853 
Q 2591 2978 2328 3040 
Q 2066 3103 1784 3103 
Q 1356 3103 1142 2972 
Q 928 2841 928 2578 
Q 928 2378 1081 2264 
Q 1234 2150 1697 2047 
L 1894 2003 
Q 2506 1872 2764 1633 
Q 3022 1394 3022 966 
Q 3022 478 2636 193 
Q 2250 -91 1575 -91 
Q 1294 -91 989 -36 
Q 684 19 347 128 
L 347 722 
Q 666 556 975 473 
Q 1284 391 1588 391 
Q 1994 391 2212 530 
Q 2431 669 2431 922 
Q 2431 1156 2273 1281 
Q 2116 1406 1581 1522 
L 1381 1569 
Q 847 1681 609 1914 
Q 372 2147 372 2553 
Q 372 3047 722 3315 
Q 1072 3584 1716 3584 
Q 2034 3584 2315 3537 
Q 2597 3491 2834 3397 
z
" transform="scale(0.015625)"/>
       <path id="DejaVuSans-29" d="M 513 4856 
L 1013 4856 
Q 1481 4119 1714 3412 
Q 1947 2706 1947 2009 
Q 1947 1309 1714 600 
Q 1481 -109 1013 -844 
L 513 -844 
Q 928 -128 1133 580 
Q 1338 1288 1338 2009 
Q 1338 2731 1133 3434 
Q 928 4138 513 4856 
z
" transform="scale(0.015625)"/>
      </defs>
      <use xlink:href="#DejaVuSans-54"/>
      <use xlink:href="#DejaVuSans-69" x="57.958984"/>
      <use xlink:href="#DejaVuSans-6d" x="85.742188"/>
      <use xlink:href="#DejaVuSans-65" x="183.154297"/>
      <use xlink:href="#DejaVuSans-20" x="244.677734"/>
      <use xlink:href="#DejaVuSans-28" x="276.464844"/>
      <use xlink:href="#DejaVuSans-6d" x="315.478516"/>
      <use xlink:href="#DejaVuSans-73" x="412.890625"/>
      <use xlink:href="#DejaVuSans-29" x="464.990234"/>
     </g>
    </g>
    <g id="text_8">
     <!-- 1e−7 -->
     <g transform="translate(380.005938 300.588562) scale(0.1 -0.1)">
      <defs>
       <path id="DejaVuSans-2212" d="M 678 2272 
L 4684 2272 
L 4684 1741 
L 678 1741 
L 678 2272 
z
" transform="scale(0.015625)"/>
       <path id="DejaVuSans-37" d="M 525 4666 
L 3525 4666 
L 3525 4397 
L 1831 0 
L 1172 0 
L 2766 4134 
L 525 4134 
L 525 4666 
z
" transform="scale(0.015625)"/>
      </defs>
      <use xlink:href="#DejaVuSans-31"/>
      <use xlink:href="#DejaVuSans-65" x="63.623047"/>
      <use xlink:href="#DejaVuSans-2212" x="125.146484"/>
      <use xlink:href="#DejaVuSans-37" x="208.935547"/>
     </g>
    </g>
   </g>
   <g id="matplotlib.axis_2">
    <g id="ytick_1">
     <g id="line2d_7">
      <defs>
       <path id="m07fc4bcf81" d="M 0 0 
L -3.5 0 
" style="stroke: #000000; stroke-width: 0.8"/>
      </defs>
      <g>
       <use xlink:href="#m07fc4bcf81" x="50.14375" y="261.216" style="stroke: #000000; stroke-width: 0.8"/>
      </g>
     </g>
     <g id="text_9">
      <!-- 0.00 -->
      <g transform="translate(20.878125 265.015219) scale(0.1 -0.1)">
       <defs>
        <path id="DejaVuSans-2e" d="M 684 794 
L 1344 794 
L 1344 0 
L 684 0 
L 684 794 
z
" transform="scale(0.015625)"/>
       </defs>
       <use xlink:href="#DejaVuSans-30"/>
       <use xlink:href="#DejaVuSans-2e" x="63.623047"/>
       <use xlink:href="#DejaVuSans-30" x="95.410156"/>
       <use xlink:href="#DejaVuSans-30" x="159.033203"/>
      </g>
     </g>
    </g>
    <g id="ytick_2">
     <g id="line2d_8">
      <g>
       <use xlink:href="#m07fc4bcf81" x="50.14375" y="227.616" style="stroke: #000000; stroke-width: 0.8"/>
      </g>
     </g>
     <g id="text_10">
      <!-- 0.25 -->
      <g transform="translate(20.878125 231.415219) scale(0.1 -0.1)">
       <use xlink:href="#DejaVuSans-30"/>
       <use xlink:href="#DejaVuSans-2e" x="63.623047"/>
       <use xlink:href="#DejaVuSans-32" x="95.410156"/>
       <use xlink:href="#DejaVuSans-35" x="159.033203"/>
      </g>
     </g>
    </g>
    <g id="ytick_3">
     <g id="line2d_9">
      <g>
       <use xlink:href="#m07fc4bcf81" x="50.14375" y="194.016" style="stroke: #000000; stroke-width: 0.8"/>
      </g>
     </g>
     <g id="text_11">
      <!-- 0.50 -->
      <g transform="translate(20.878125 197.815219) scale(0.1 -0.1)">
       <use xlink:href="#DejaVuSans-30"/>
       <use xlink:href="#DejaVuSans-2e" x="63.623047"/>
       <use xlink:href="#DejaVuSans-35" x="95.410156"/>
       <use xlink:href="#DejaVuSans-30" x="159.033203"/>
      </g>
     </g>
    </g>
    <g id="ytick_4">
     <g id="line2d_10">
      <g>
       <use xlink:href="#m07fc4bcf81" x="50.14375" y="160.416" style="stroke: #000000; stroke-width: 0.8"/>
      </g>
     </g>
     <g id="text_12">
      <!-- 0.75 -->
      <g transform="translate(20.878125 164.215219) scale(0.1 -0.1)">
       <use xlink:href="#DejaVuSans-30"/>
       <use xlink:href="#DejaVuSans-2e" x="63.623047"/>
       <use xlink:href="#DejaVuSans-37" x="95.410156"/>
       <use xlink:href="#DejaVuSans-35" x="159.033203"/>
      </g>
     </g>
    </g>
    <g id="ytick_5">
     <g id="line2d_11">
      <g>
       <use xlink:href="#m07fc4bcf81" x="50.14375" y="126.816" style="stroke: #000000; stroke-width: 0.8"/>
      </g>
     </g>
     <g id="text_13">
      <!-- 1.00 -->
      <g transform="translate(20.878125 130.615219) scale(0.1 -0.1)">
       <use xlink:href="#DejaVuSans-31"/>
       <use xlink:href="#DejaVuSans-2e" x="63.623047"/>
       <use xlink:href="#DejaVuSans-30" x="95.410156"/>
       <use xlink:href="#DejaVuSans-30" x="159.033203"/>
      </g>
     </g>
    </g>
    <g id="ytick_6">
     <g id="line2d_12">
      <g>
       <use xlink:href="#m07fc4bcf81" x="50.14375" y="93.216" style="stroke: #000000; stroke-width: 0.8"/>
      </g>
     </g>
     <g id="text_14">
      <!-- 1.25 -->
      <g transform="translate(20.878125 97.015219) scale(0.1 -0.1)">
       <use xlink:href="#DejaVuSans-31"/>
       <use xlink:href="#DejaVuSans-2e" x="63.623047"/>
       <use xlink:href="#DejaVuSans-32" x="95.410156"/>
       <use xlink:href="#DejaVuSans-35" x="159.033203"/>
      </g>
     </g>
    </g>
    <g id="ytick_7">
     <g id="line2d_13">
      <g>
       <use xlink:href="#m07fc4bcf81" x="50.14375" y="59.616" style="stroke: #000000; stroke-width: 0.8"/>
      </g>
     </g>
     <g id="text_15">
      <!-- 1.50 -->
      <g transform="translate(20.878125 63.415219) scale(0.1 -0.1)">
       <use xlink:href="#DejaVuSans-31"/>
       <use xlink:href="#DejaVuSans-2e" x="63.623047"/>
       <use xlink:href="#DejaVuSans-35" x="95.410156"/>
       <use xlink:href="#DejaVuSans-30" x="159.033203"/>
      </g>
     </g>
    </g>
    <g id="ytick_8">
     <g id="line2d_14">
      <g>
       <use xlink:href="#m07fc4bcf81" x="50.14375" y="26.016" style="stroke: #000000; stroke-width: 0.8"/>
      </g>
     </g>
     <g id="text_16">
      <!-- 1.75 -->
      <g transform="translate(20.878125 29.815219) scale(0.1 -0.1)">
       <use xlink:href="#DejaVuSans-31"/>
       <use xlink:href="#DejaVuSans-2e" x="63.623047"/>
       <use xlink:href="#DejaVuSans-37" x="95.410156"/>
       <use xlink:href="#DejaVuSans-35" x="159.033203"/>
      </g>
     </g>
    </g>
    <g id="text_17">
     <!-- Vout (V), Vinp (V) -->
     <g transform="translate(14.798438 183.516937) rotate(-90) scale(0.1 -0.1)">
      <defs>
       <path id="DejaVuSans-56" d="M 1831 0 
L 50 4666 
L 709 4666 
L 2188 738 
L 3669 4666 
L 4325 4666 
L 2547 0 
L 1831 0 
z
" transform="scale(0.015625)"/>
       <path id="DejaVuSans-6f" d="M 1959 3097 
Q 1497 3097 1228 2736 
Q 959 2375 959 1747 
Q 959 1119 1226 758 
Q 1494 397 1959 397 
Q 2419 397 2687 759 
Q 2956 1122 2956 1747 
Q 2956 2369 2687 2733 
Q 2419 3097 1959 3097 
z
M 1959 3584 
Q 2709 3584 3137 3096 
Q 3566 2609 3566 1747 
Q 3566 888 3137 398 
Q 2709 -91 1959 -91 
Q 1206 -91 779 398 
Q 353 888 353 1747 
Q 353 2609 779 3096 
Q 1206 3584 1959 3584 
z
" transform="scale(0.015625)"/>
       <path id="DejaVuSans-75" d="M 544 1381 
L 544 3500 
L 1119 3500 
L 1119 1403 
Q 1119 906 1312 657 
Q 1506 409 1894 409 
Q 2359 409 2629 706 
Q 2900 1003 2900 1516 
L 2900 3500 
L 3475 3500 
L 3475 0 
L 2900 0 
L 2900 538 
Q 2691 219 2414 64 
Q 2138 -91 1772 -91 
Q 1169 -91 856 284 
Q 544 659 544 1381 
z
M 1991 3584 
L 1991 3584 
z
" transform="scale(0.015625)"/>
       <path id="DejaVuSans-74" d="M 1172 4494 
L 1172 3500 
L 2356 3500 
L 2356 3053 
L 1172 3053 
L 1172 1153 
Q 1172 725 1289 603 
Q 1406 481 1766 481 
L 2356 481 
L 2356 0 
L 1766 0 
Q 1100 0 847 248 
Q 594 497 594 1153 
L 594 3053 
L 172 3053 
L 172 3500 
L 594 3500 
L 594 4494 
L 1172 4494 
z
" transform="scale(0.015625)"/>
       <path id="DejaVuSans-2c" d="M 750 794 
L 1409 794 
L 1409 256 
L 897 -744 
L 494 -744 
L 750 256 
L 750 794 
z
" transform="scale(0.015625)"/>
       <path id="DejaVuSans-6e" d="M 3513 2113 
L 3513 0 
L 2938 0 
L 2938 2094 
Q 2938 2591 2744 2837 
Q 2550 3084 2163 3084 
Q 1697 3084 1428 2787 
Q 1159 2491 1159 1978 
L 1159 0 
L 581 0 
L 581 3500 
L 1159 3500 
L 1159 2956 
Q 1366 3272 1645 3428 
Q 1925 3584 2291 3584 
Q 2894 3584 3203 3211 
Q 3513 2838 3513 2113 
z
" transform="scale(0.015625)"/>
       <path id="DejaVuSans-70" d="M 1159 525 
L 1159 -1331 
L 581 -1331 
L 581 3500 
L 1159 3500 
L 1159 2969 
Q 1341 3281 1617 3432 
Q 1894 3584 2278 3584 
Q 2916 3584 3314 3078 
Q 3713 2572 3713 1747 
Q 3713 922 3314 415 
Q 2916 -91 2278 -91 
Q 1894 -91 1617 61 
Q 1341 213 1159 525 
z
M 3116 1747 
Q 3116 2381 2855 2742 
Q 2594 3103 2138 3103 
Q 1681 3103 1420 2742 
Q 1159 2381 1159 1747 
Q 1159 1113 1420 752 
Q 1681 391 2138 391 
Q 2594 391 2855 752 
Q 3116 1113 3116 1747 
z
" transform="scale(0.015625)"/>
      </defs>
      <use xlink:href="#DejaVuSans-56"/>
      <use xlink:href="#DejaVuSans-6f" x="60.658203"/>
      <use xlink:href="#DejaVuSans-75" x="121.839844"/>
      <use xlink:href="#DejaVuSans-74" x="185.21875"/>
      <use xlink:href="#DejaVuSans-20" x="224.427734"/>
      <use xlink:href="#DejaVuSans-28" x="256.214844"/>
      <use xlink:href="#DejaVuSans-56" x="295.228516"/>
      <use xlink:href="#DejaVuSans-29" x="363.636719"/>
      <use xlink:href="#DejaVuSans-2c" x="402.650391"/>
      <use xlink:href="#DejaVuSans-20" x="434.4375"/>
      <use xlink:href="#DejaVuSans-56" x="466.224609"/>
      <use xlink:href="#DejaVuSans-69" x="532.382812"/>
      <use xlink:href="#DejaVuSans-6e" x="560.166016"/>
      <use xlink:href="#DejaVuSans-70" x="623.544922"/>
      <use xlink:href="#DejaVuSans-20" x="687.021484"/>
      <use xlink:href="#DejaVuSans-28" x="718.808594"/>
      <use xlink:href="#DejaVuSans-56" x="757.822266"/>
      <use xlink:href="#DejaVuSans-29" x="826.230469"/>
     </g>
    </g>
   </g>
   <g id="line2d_15">
    <path d="M 66.376477 222.670358 
L 66.408943 222.670358 
L 66.441408 222.670358 
L 66.506339 222.670358 
L 66.636201 222.670358 
L 66.895925 222.670358 
L 67.415372 222.670358 
L 68.454266 222.670358 
L 70.532055 222.670358 
L 74.687634 222.670358 
L 81.180725 222.670358 
L 87.673815 222.670358 
L 94.166906 222.670358 
L 100.659997 222.670358 
L 107.153088 222.670358 
L 113.646179 222.670358 
L 120.13927 222.670358 
L 126.632361 222.670358 
L 131.307386 222.670358 
L 131.313879 222.669254 
L 131.326866 222.66773 
L 131.352838 222.660285 
L 131.372317 222.655541 
L 131.37645 222.656863 
L 131.384715 222.659064 
L 131.401245 222.662133 
L 131.428109 222.667789 
L 131.481835 222.679024 
L 131.531012 222.68905 
L 131.629367 222.709055 
L 131.826077 222.745755 
L 132.219495 222.798713 
L 132.895382 222.595499 
L 134.247155 220.795324 
L 136.315205 216.68203 
L 138.59396 212.119643 
L 142.330619 204.651782 
L 148.82371 191.700194 
L 155.316801 178.767706 
L 161.809892 165.86332 
L 168.302983 152.983873 
L 174.796074 140.137043 
L 181.289165 127.323099 
L 187.782256 114.561075 
L 194.275346 102.026519 
L 200.768437 90.841785 
L 207.261528 82.705158 
L 213.754619 77.944343 
L 220.24771 75.402055 
L 226.740801 74.068743 
L 233.233892 73.363706 
L 239.726983 72.993181 
L 246.220074 72.797228 
L 252.713165 72.694105 
L 259.206256 72.638886 
L 265.699346 72.610113 
L 272.192437 72.594348 
L 278.685528 72.586374 
L 285.178619 72.581727 
L 291.67171 72.579561 
L 298.164801 72.578078 
L 304.657892 72.577528 
L 311.150983 72.576969 
L 317.644074 72.576864 
L 324.137165 72.576591 
L 330.630256 72.576603 
L 337.123346 72.576433 
L 343.616437 72.576473 
L 350.109528 72.576347 
L 356.602619 72.576388 
L 363.09571 72.576286 
L 369.588801 72.576326 
L 376.081892 72.57624 
L 382.574983 72.576274 
L 389.068074 72.576201 
L 391.031023 72.576493 
" clip-path="url(#pfd70cb3118)" style="fill: none; stroke: #1f77b4; stroke-width: 1.5; stroke-linecap: square"/>
   </g>
   <g id="line2d_16">
    <path d="M 66.376477 261.216 
L 66.408943 261.216 
L 66.441408 261.216 
L 66.506339 261.216 
L 66.636201 261.216 
L 66.895925 261.216 
L 67.415372 261.216 
L 68.454266 261.216 
L 70.532055 261.216 
L 74.687634 261.216 
L 81.180725 261.216 
L 87.673815 261.216 
L 94.166906 261.216 
L 100.659997 261.216 
L 107.153088 261.216 
L 113.646179 261.216 
L 120.13927 261.216 
L 126.632361 261.216 
L 131.307386 261.216 
L 131.313879 237.024 
L 131.326866 188.64 
L 131.352838 91.872 
L 131.372317 19.296 
L 131.37645 19.296 
L 131.384715 19.296 
L 131.401245 19.296 
L 131.428109 19.296 
L 131.481835 19.296 
L 131.531012 19.296 
L 131.629367 19.296 
L 131.826077 19.296 
L 132.219495 19.296 
L 132.895382 19.296 
L 134.247155 19.296 
L 136.315205 19.296 
L 138.59396 19.296 
L 142.330619 19.296 
L 148.82371 19.296 
L 155.316801 19.296 
L 161.809892 19.296 
L 168.302983 19.296 
L 174.796074 19.296 
L 181.289165 19.296 
L 187.782256 19.296 
L 194.275346 19.296 
L 200.768437 19.296 
L 207.261528 19.296 
L 213.754619 19.296 
L 220.24771 19.296 
L 226.740801 19.296 
L 233.233892 19.296 
L 239.726983 19.296 
L 246.220074 19.296 
L 252.713165 19.296 
L 259.206256 19.296 
L 265.699346 19.296 
L 272.192437 19.296 
L 278.685528 19.296 
L 285.178619 19.296 
L 291.67171 19.296 
L 298.164801 19.296 
L 304.657892 19.296 
L 311.150983 19.296 
L 317.644074 19.296 
L 324.137165 19.296 
L 330.630256 19.296 
L 337.123346 19.296 
L 343.616437 19.296 
L 350.109528 19.296 
L 356.602619 19.296 
L 363.09571 19.296 
L 369.588801 19.296 
L 376.081892 19.296 
L 382.574983 19.296 
L 389.068074 19.296 
L 391.031023 19.296 
" clip-path="url(#pfd70cb3118)" style="fill: none; stroke: #ff7f0e; stroke-width: 1.5; stroke-linecap: square"/>
   </g>
   <g id="line2d_17">
    <path d="M 66.376477 225.093528 
L 66.408943 225.093528 
L 66.441408 225.093528 
L 66.506339 225.093528 
L 66.636201 225.093528 
L 66.895925 225.093528 
L 67.415372 225.093528 
L 68.454266 225.093528 
L 70.532055 225.093528 
L 74.687634 225.093528 
L 81.180725 225.093528 
L 87.673815 225.093528 
L 94.166906 225.093528 
L 100.659997 225.093528 
L 107.153088 225.093528 
L 113.646179 225.093528 
L 120.13927 225.093528 
L 126.632361 225.093528 
L 131.307386 225.093528 
L 131.313879 225.092453 
L 131.326866 225.090827 
L 131.352838 225.083356 
L 131.372317 225.078224 
L 131.376663 225.079407 
L 131.385355 225.081468 
L 131.40274 225.084625 
L 131.431321 225.090461 
L 131.488481 225.10214 
L 131.540453 225.112687 
L 131.644397 225.133637 
L 131.852287 225.172447 
L 132.268064 225.221749 
L 133.001558 224.919427 
L 134.468547 222.748194 
L 136.544832 218.527171 
L 138.882471 213.848625 
L 142.940083 205.695412 
L 149.433174 192.688975 
L 155.926265 179.696157 
L 162.419356 166.737028 
L 168.912447 153.800176 
L 175.405538 140.899081 
L 181.898629 128.029711 
L 188.39172 115.21231 
L 194.884811 102.599041 
L 201.377902 91.263363 
L 207.870992 82.951592 
L 214.364083 78.094242 
L 220.857174 75.526288 
L 227.350265 74.195407 
L 233.843356 73.499892 
L 240.336447 73.138811 
L 246.829538 72.95005 
L 253.322629 72.851963 
L 259.81572 72.799936 
L 266.308811 72.773256 
L 272.801902 72.75868 
L 279.294992 72.751507 
L 285.788083 72.747242 
L 292.281174 72.745387 
L 298.774265 72.743992 
L 305.267356 72.743578 
L 311.760447 72.743008 
L 318.253538 72.742978 
L 324.746629 72.742663 
L 331.23972 72.74273 
L 337.732811 72.742505 
L 344.225902 72.742591 
L 350.718992 72.742409 
L 357.212083 72.742495 
L 363.705174 72.742337 
L 370.198265 72.742418 
L 376.691356 72.742277 
L 383.184447 72.742352 
L 389.677538 72.742224 
L 391.031023 72.742499 
" clip-path="url(#pfd70cb3118)" style="fill: none; stroke: #2ca02c; stroke-width: 1.5; stroke-linecap: square"/>
   </g>
   <g id="line2d_18">
    <path d="M 66.376477 261.216 
L 66.408943 261.216 
L 66.441408 261.216 
L 66.506339 261.216 
L 66.636201 261.216 
L 66.895925 261.216 
L 67.415372 261.216 
L 68.454266 261.216 
L 70.532055 261.216 
L 74.687634 261.216 
L 81.180725 261.216 
L 87.673815 261.216 
L 94.166906 261.216 
L 100.659997 261.216 
L 107.153088 261.216 
L 113.646179 261.216 
L 120.13927 261.216 
L 126.632361 261.216 
L 131.307386 261.216 
L 131.313879 237.024 
L 131.326866 188.64 
L 131.352838 91.872 
L 131.372317 19.296 
L 131.376663 19.296 
L 131.385355 19.296 
L 131.40274 19.296 
L 131.431321 19.296 
L 131.488481 19.296 
L 131.540453 19.296 
L 131.644397 19.296 
L 131.852287 19.296 
L 132.268064 19.296 
L 133.001558 19.296 
L 134.468547 19.296 
L 136.544832 19.296 
L 138.882471 19.296 
L 142.940083 19.296 
L 149.433174 19.296 
L 155.926265 19.296 
L 162.419356 19.296 
L 168.912447 19.296 
L 175.405538 19.296 
L 181.898629 19.296 
L 188.39172 19.296 
L 194.884811 19.296 
L 201.377902 19.296 
L 207.870992 19.296 
L 214.364083 19.296 
L 220.857174 19.296 
L 227.350265 19.296 
L 233.843356 19.296 
L 240.336447 19.296 
L 246.829538 19.296 
L 253.322629 19.296 
L 259.81572 19.296 
L 266.308811 19.296 
L 272.801902 19.296 
L 279.294992 19.296 
L 285.788083 19.296 
L 292.281174 19.296 
L 298.774265 19.296 
L 305.267356 19.296 
L 311.760447 19.296 
L 318.253538 19.296 
L 324.746629 19.296 
L 331.23972 19.296 
L 337.732811 19.296 
L 344.225902 19.296 
L 350.718992 19.296 
L 357.212083 19.296 
L 363.705174 19.296 
L 370.198265 19.296 
L 376.691356 19.296 
L 383.184447 19.296 
L 389.677538 19.296 
L 391.031023 19.296 
" clip-path="url(#pfd70cb3118)" style="fill: none; stroke: #d62728; stroke-width: 1.5; stroke-linecap: square"/>
   </g>
   <g id="line2d_19">
    <path d="M 66.376477 227.509008 
L 66.408943 227.509008 
L 66.441408 227.509008 
L 66.506339 227.509008 
L 66.636201 227.509008 
L 66.895925 227.509008 
L 67.415372 227.509008 
L 68.454266 227.509008 
L 70.532055 227.509008 
L 74.687634 227.509008 
L 81.180725 227.509008 
L 87.673815 227.509008 
L 94.166906 227.509008 
L 100.659997 227.509008 
L 107.153088 227.509008 
L 113.646179 227.509008 
L 120.13927 227.509008 
L 126.632361 227.509008 
L 131.307386 227.509008 
L 131.313879 227.507968 
L 131.326866 227.50624 
L 131.352838 227.498618 
L 131.372317 227.492926 
L 131.377001 227.493956 
L 131.386368 227.495867 
L 131.405102 227.499109 
L 131.436355 227.505162 
L 131.498862 227.517563 
L 131.555703 227.528982 
L 131.669385 227.551604 
L 131.89675 227.593954 
L 132.351479 227.632047 
L 133.176723 227.145652 
L 134.82721 224.401338 
L 137.064791 219.783027 
L 139.489436 214.932021 
L 144.322871 205.170316 
L 150.815962 192.110806 
L 157.309053 179.059875 
L 163.802144 166.049978 
L 170.295234 153.058877 
L 176.788325 140.107938 
L 183.281416 127.187621 
L 189.774507 114.324262 
L 196.267598 101.694766 
L 202.760689 90.483722 
L 209.25378 82.438123 
L 215.746871 77.837245 
L 222.239962 75.441398 
L 228.733053 74.215422 
L 235.226144 73.581874 
L 241.719234 73.256501 
L 248.212325 73.088326 
L 254.705416 73.002032 
L 261.198507 72.956672 
L 267.691598 72.933814 
L 274.184689 72.921316 
L 280.67778 72.915384 
L 287.170871 72.911724 
L 293.663962 72.910293 
L 300.157053 72.909042 
L 306.650144 72.908798 
L 313.143234 72.908226 
L 319.636325 72.908289 
L 326.129416 72.907925 
L 332.622507 72.908061 
L 339.115598 72.907772 
L 345.608689 72.907919 
L 352.10178 72.907668 
L 358.594871 72.907812 
L 365.087962 72.907583 
L 371.581053 72.907719 
L 378.074144 72.907508 
L 384.567234 72.907637 
L 391.031023 72.907445 
" clip-path="url(#pfd70cb3118)" style="fill: none; stroke: #9467bd; stroke-width: 1.5; stroke-linecap: square"/>
   </g>
   <g id="line2d_20">
    <path d="M 66.376477 261.216 
L 66.408943 261.216 
L 66.441408 261.216 
L 66.506339 261.216 
L 66.636201 261.216 
L 66.895925 261.216 
L 67.415372 261.216 
L 68.454266 261.216 
L 70.532055 261.216 
L 74.687634 261.216 
L 81.180725 261.216 
L 87.673815 261.216 
L 94.166906 261.216 
L 100.659997 261.216 
L 107.153088 261.216 
L 113.646179 261.216 
L 120.13927 261.216 
L 126.632361 261.216 
L 131.307386 261.216 
L 131.313879 237.024 
L 131.326866 188.64 
L 131.352838 91.872 
L 131.372317 19.296 
L 131.377001 19.296 
L 131.386368 19.296 
L 131.405102 19.296 
L 131.436355 19.296 
L 131.498862 19.296 
L 131.555703 19.296 
L 131.669385 19.296 
L 131.89675 19.296 
L 132.351479 19.296 
L 133.176723 19.296 
L 134.82721 19.296 
L 137.064791 19.296 
L 139.489436 19.296 
L 144.322871 19.296 
L 150.815962 19.296 
L 157.309053 19.296 
L 163.802144 19.296 
L 170.295234 19.296 
L 176.788325 19.296 
L 183.281416 19.296 
L 189.774507 19.296 
L 196.267598 19.296 
L 202.760689 19.296 
L 209.25378 19.296 
L 215.746871 19.296 
L 222.239962 19.296 
L 228.733053 19.296 
L 235.226144 19.296 
L 241.719234 19.296 
L 248.212325 19.296 
L 254.705416 19.296 
L 261.198507 19.296 
L 267.691598 19.296 
L 274.184689 19.296 
L 280.67778 19.296 
L 287.170871 19.296 
L 293.663962 19.296 
L 300.157053 19.296 
L 306.650144 19.296 
L 313.143234 19.296 
L 319.636325 19.296 
L 326.129416 19.296 
L 332.622507 19.296 
L 339.115598 19.296 
L 345.608689 19.296 
L 352.10178 19.296 
L 358.594871 19.296 
L 365.087962 19.296 
L 371.581053 19.296 
L 378.074144 19.296 
L 384.567234 19.296 
L 391.031023 19.296 
" clip-path="url(#pfd70cb3118)" style="fill: none; stroke: #8c564b; stroke-width: 1.5; stroke-linecap: square"/>
   </g>
   <g id="line2d_21">
    <path d="M 66.376477 241.579496 
L 66.408943 241.579496 
L 66.441408 241.579496 
L 66.506339 241.579496 
L 66.636201 241.579496 
L 66.895925 241.579496 
L 67.415372 241.579496 
L 68.454266 241.579496 
L 70.532055 241.579496 
L 74.687634 241.579496 
L 81.180725 241.579496 
L 87.673815 241.579496 
L 94.166906 241.579496 
L 100.659997 241.579496 
L 107.153088 241.579496 
L 113.646179 241.579496 
L 120.13927 241.579496 
L 126.632361 241.579496 
L 131.307386 241.579496 
L 131.313879 241.578187 
L 131.326866 241.575802 
L 131.352838 241.568115 
L 131.372317 241.564704 
L 131.377227 241.567327 
L 131.387048 241.572414 
L 131.40669 241.580774 
L 131.436551 241.592346 
L 131.496272 241.612273 
L 131.552197 241.628662 
L 131.664046 241.65791 
L 131.877739 241.697812 
L 132.305124 241.691811 
L 132.954817 241.314934 
L 134.254204 239.400137 
L 136.405209 235.082609 
L 138.698557 230.402345 
L 143.004829 221.654273 
L 149.49792 208.474577 
L 155.991011 195.319634 
L 162.484102 182.186468 
L 168.977193 169.079391 
L 175.470284 156.000104 
L 181.963375 142.95155 
L 188.456466 129.939001 
L 194.949557 116.971084 
L 201.442647 104.117031 
L 207.935738 91.827096 
L 214.428829 81.528115 
L 220.92192 74.377496 
L 227.415011 70.060415 
L 233.908102 67.560483 
L 240.401193 66.130043 
L 246.894284 65.303733 
L 253.387375 64.828367 
L 259.880466 64.554267 
L 266.373557 64.396214 
L 272.866647 64.304549 
L 279.359738 64.251785 
L 285.852829 64.220989 
L 292.34592 64.203365 
L 298.839011 64.192941 
L 305.332102 64.187052 
L 311.825193 64.183467 
L 318.318284 64.181498 
L 324.811375 64.180223 
L 331.304466 64.17956 
L 337.797557 64.179075 
L 344.290647 64.178844 
L 350.783738 64.178637 
L 357.276829 64.178547 
L 363.76992 64.178443 
L 370.263011 64.178396 
L 376.756102 64.178337 
L 383.249193 64.178301 
L 389.742284 64.178264 
L 391.031023 64.178516 
" clip-path="url(#pfd70cb3118)" style="fill: none; stroke: #e377c2; stroke-width: 1.5; stroke-linecap: square"/>
   </g>
   <g id="line2d_22">
    <path d="M 66.376477 261.216 
L 66.408943 261.216 
L 66.441408 261.216 
L 66.506339 261.216 
L 66.636201 261.216 
L 66.895925 261.216 
L 67.415372 261.216 
L 68.454266 261.216 
L 70.532055 261.216 
L 74.687634 261.216 
L 81.180725 261.216 
L 87.673815 261.216 
L 94.166906 261.216 
L 100.659997 261.216 
L 107.153088 261.216 
L 113.646179 261.216 
L 120.13927 261.216 
L 126.632361 261.216 
L 131.307386 261.216 
L 131.313879 237.024 
L 131.326866 188.64 
L 131.352838 91.872 
L 131.372317 19.296 
L 131.377227 19.296 
L 131.387048 19.296 
L 131.40669 19.296 
L 131.436551 19.296 
L 131.496272 19.296 
L 131.552197 19.296 
L 131.664046 19.296 
L 131.877739 19.296 
L 132.305124 19.296 
L 132.954817 19.296 
L 134.254204 19.296 
L 136.405209 19.296 
L 138.698557 19.296 
L 143.004829 19.296 
L 149.49792 19.296 
L 155.991011 19.296 
L 162.484102 19.296 
L 168.977193 19.296 
L 175.470284 19.296 
L 181.963375 19.296 
L 188.456466 19.296 
L 194.949557 19.296 
L 201.442647 19.296 
L 207.935738 19.296 
L 214.428829 19.296 
L 220.92192 19.296 
L 227.415011 19.296 
L 233.908102 19.296 
L 240.401193 19.296 
L 246.894284 19.296 
L 253.387375 19.296 
L 259.880466 19.296 
L 266.373557 19.296 
L 272.866647 19.296 
L 279.359738 19.296 
L 285.852829 19.296 
L 292.34592 19.296 
L 298.839011 19.296 
L 305.332102 19.296 
L 311.825193 19.296 
L 318.318284 19.296 
L 324.811375 19.296 
L 331.304466 19.296 
L 337.797557 19.296 
L 344.290647 19.296 
L 350.783738 19.296 
L 357.276829 19.296 
L 363.76992 19.296 
L 370.263011 19.296 
L 376.756102 19.296 
L 383.249193 19.296 
L 389.742284 19.296 
L 391.031023 19.296 
" clip-path="url(#pfd70cb3118)" style="fill: none; stroke: #7f7f7f; stroke-width: 1.5; stroke-linecap: square"/>
   </g>
   <g id="line2d_23">
    <path d="M 66.376477 243.897065 
L 66.408943 243.897065 
L 66.441408 243.897065 
L 66.506339 243.897065 
L 66.636201 243.897065 
L 66.895925 243.897065 
L 67.415372 243.897065 
L 68.454266 243.897065 
L 70.532055 243.897065 
L 74.687634 243.897065 
L 81.180725 243.897065 
L 87.673815 243.897065 
L 94.166906 243.897065 
L 100.659997 243.897065 
L 107.153088 243.897065 
L 113.646179 243.897065 
L 120.13927 243.897065 
L 126.632361 243.897065 
L 131.307386 243.897065 
L 131.313879 243.895777 
L 131.326866 243.893281 
L 131.352838 243.885484 
L 131.372317 243.881745 
L 131.376777 243.883956 
L 131.385696 243.888309 
L 131.403535 243.895462 
L 131.432134 243.905978 
L 131.48933 243.92451 
L 131.54296 243.940145 
L 131.650219 243.968752 
L 131.864723 244.010596 
L 132.293732 244.009244 
L 132.927927 243.647439 
L 134.196315 241.77566 
L 136.326213 237.478708 
L 138.586242 232.845815 
L 142.803382 224.240761 
L 149.296473 211.003043 
L 155.789564 197.790351 
L 162.282655 184.599909 
L 168.775746 171.436133 
L 175.268837 158.300442 
L 181.761928 145.195736 
L 188.255019 132.127007 
L 194.74811 119.100859 
L 201.241201 106.165214 
L 207.734291 93.661514 
L 214.227382 82.893603 
L 220.720473 75.203682 
L 227.213564 70.528226 
L 233.706655 67.839581 
L 240.199746 66.316034 
L 246.692837 65.445135 
L 253.185928 64.949641 
L 259.679019 64.666833 
L 266.17211 64.505475 
L 272.665201 64.412766 
L 279.158291 64.359977 
L 285.651382 64.32943 
L 292.144473 64.31215 
L 298.637564 64.301998 
L 305.130655 64.296339 
L 311.623746 64.292906 
L 318.116837 64.29105 
L 324.609928 64.289849 
L 331.103019 64.289234 
L 337.59611 64.288784 
L 344.089201 64.288575 
L 350.582291 64.288386 
L 357.075382 64.288307 
L 363.568473 64.288216 
L 370.061564 64.288175 
L 376.554655 64.288126 
L 383.047746 64.288096 
L 389.540837 64.288068 
L 391.031023 64.288356 
" clip-path="url(#pfd70cb3118)" style="fill: none; stroke: #bcbd22; stroke-width: 1.5; stroke-linecap: square"/>
   </g>
   <g id="line2d_24">
    <path d="M 66.376477 261.216 
L 66.408943 261.216 
L 66.441408 261.216 
L 66.506339 261.216 
L 66.636201 261.216 
L 66.895925 261.216 
L 67.415372 261.216 
L 68.454266 261.216 
L 70.532055 261.216 
L 74.687634 261.216 
L 81.180725 261.216 
L 87.673815 261.216 
L 94.166906 261.216 
L 100.659997 261.216 
L 107.153088 261.216 
L 113.646179 261.216 
L 120.13927 261.216 
L 126.632361 261.216 
L 131.307386 261.216 
L 131.313879 237.024 
L 131.326866 188.64 
L 131.352838 91.872 
L 131.372317 19.296 
L 131.376777 19.296 
L 131.385696 19.296 
L 131.403535 19.296 
L 131.432134 19.296 
L 131.48933 19.296 
L 131.54296 19.296 
L 131.650219 19.296 
L 131.864723 19.296 
L 132.293732 19.296 
L 132.927927 19.296 
L 134.196315 19.296 
L 136.326213 19.296 
L 138.586242 19.296 
L 142.803382 19.296 
L 149.296473 19.296 
L 155.789564 19.296 
L 162.282655 19.296 
L 168.775746 19.296 
L 175.268837 19.296 
L 181.761928 19.296 
L 188.255019 19.296 
L 194.74811 19.296 
L 201.241201 19.296 
L 207.734291 19.296 
L 214.227382 19.296 
L 220.720473 19.296 
L 227.213564 19.296 
L 233.706655 19.296 
L 240.199746 19.296 
L 246.692837 19.296 
L 253.185928 19.296 
L 259.679019 19.296 
L 266.17211 19.296 
L 272.665201 19.296 
L 279.158291 19.296 
L 285.651382 19.296 
L 292.144473 19.296 
L 298.637564 19.296 
L 305.130655 19.296 
L 311.623746 19.296 
L 318.116837 19.296 
L 324.609928 19.296 
L 331.103019 19.296 
L 337.59611 19.296 
L 344.089201 19.296 
L 350.582291 19.296 
L 357.075382 19.296 
L 363.568473 19.296 
L 370.061564 19.296 
L 376.554655 19.296 
L 383.047746 19.296 
L 389.540837 19.296 
L 391.031023 19.296 
" clip-path="url(#pfd70cb3118)" style="fill: none; stroke: #17becf; stroke-width: 1.5; stroke-linecap: square"/>
   </g>
   <g id="line2d_25">
    <path d="M 66.376477 246.152894 
L 66.408943 246.152894 
L 66.441408 246.152894 
L 66.506339 246.152894 
L 66.636201 246.152894 
L 66.895925 246.152894 
L 67.415372 246.152894 
L 68.454266 246.152894 
L 70.532055 246.152894 
L 74.687634 246.152894 
L 81.180725 246.152894 
L 87.673815 246.152894 
L 94.166906 246.152894 
L 100.659997 246.152894 
L 107.153088 246.152894 
L 113.646179 246.152894 
L 120.13927 246.152894 
L 126.632361 246.152894 
L 131.307386 246.152894 
L 131.313879 246.151633 
L 131.326866 246.149028 
L 131.352838 246.141016 
L 131.372317 246.13671 
L 131.376906 246.138712 
L 131.386084 246.142737 
L 131.404439 246.149469 
L 131.434397 246.159553 
L 131.494313 246.177904 
L 131.550265 246.193905 
L 131.662168 246.22331 
L 131.885972 246.2662 
L 132.333582 246.254581 
L 132.988735 245.833358 
L 134.299042 243.794036 
L 136.43829 239.418747 
L 138.724854 234.720626 
L 143.097627 225.756619 
L 149.590717 212.46437 
L 156.083808 199.194087 
L 162.576899 185.949147 
L 169.06999 172.729868 
L 175.563081 159.54048 
L 182.056172 146.381737 
L 188.549263 133.260051 
L 195.042354 120.180153 
L 201.535445 107.182367 
L 208.028536 94.558194 
L 214.521627 83.546397 
L 221.014717 75.579109 
L 227.507808 70.731372 
L 234.000899 67.966115 
L 240.49399 66.414784 
L 246.987081 65.536846 
L 253.480172 65.042608 
L 259.973263 64.763353 
L 266.466354 64.605682 
L 272.959445 64.515914 
L 279.452536 64.465368 
L 285.945627 64.436331 
L 292.438717 64.42012 
L 298.931808 64.410622 
L 305.424899 64.405422 
L 311.91799 64.402239 
L 318.411081 64.40057 
L 324.904172 64.399451 
L 331.397263 64.39891 
L 337.890354 64.398478 
L 344.383445 64.398297 
L 350.876536 64.398103 
L 357.369627 64.398037 
L 363.862717 64.397932 
L 370.355808 64.397898 
L 376.848899 64.397835 
L 383.34199 64.397808 
L 389.835081 64.397768 
L 391.031023 64.398038 
" clip-path="url(#pfd70cb3118)" style="fill: none; stroke: #1f77b4; stroke-width: 1.5; stroke-linecap: square"/>
   </g>
   <g id="line2d_26">
    <path d="M 66.376477 261.216 
L 66.408943 261.216 
L 66.441408 261.216 
L 66.506339 261.216 
L 66.636201 261.216 
L 66.895925 261.216 
L 67.415372 261.216 
L 68.454266 261.216 
L 70.532055 261.216 
L 74.687634 261.216 
L 81.180725 261.216 
L 87.673815 261.216 
L 94.166906 261.216 
L 100.659997 261.216 
L 107.153088 261.216 
L 113.646179 261.216 
L 120.13927 261.216 
L 126.632361 261.216 
L 131.307386 261.216 
L 131.313879 237.024 
L 131.326866 188.64 
L 131.352838 91.872 
L 131.372317 19.296 
L 131.376906 19.296 
L 131.386084 19.296 
L 131.404439 19.296 
L 131.434397 19.296 
L 131.494313 19.296 
L 131.550265 19.296 
L 131.662168 19.296 
L 131.885972 19.296 
L 132.333582 19.296 
L 132.988735 19.296 
L 134.299042 19.296 
L 136.43829 19.296 
L 138.724854 19.296 
L 143.097627 19.296 
L 149.590717 19.296 
L 156.083808 19.296 
L 162.576899 19.296 
L 169.06999 19.296 
L 175.563081 19.296 
L 182.056172 19.296 
L 188.549263 19.296 
L 195.042354 19.296 
L 201.535445 19.296 
L 208.028536 19.296 
L 214.521627 19.296 
L 221.014717 19.296 
L 227.507808 19.296 
L 234.000899 19.296 
L 240.49399 19.296 
L 246.987081 19.296 
L 253.480172 19.296 
L 259.973263 19.296 
L 266.466354 19.296 
L 272.959445 19.296 
L 279.452536 19.296 
L 285.945627 19.296 
L 292.438717 19.296 
L 298.931808 19.296 
L 305.424899 19.296 
L 311.91799 19.296 
L 318.411081 19.296 
L 324.904172 19.296 
L 331.397263 19.296 
L 337.890354 19.296 
L 344.383445 19.296 
L 350.876536 19.296 
L 357.369627 19.296 
L 363.862717 19.296 
L 370.355808 19.296 
L 376.848899 19.296 
L 383.34199 19.296 
L 389.835081 19.296 
L 391.031023 19.296 
" clip-path="url(#pfd70cb3118)" style="fill: none; stroke: #ff7f0e; stroke-width: 1.5; stroke-linecap: square"/>
   </g>
   <g id="line2d_27">
    <path d="M 66.376477 254.655815 
L 66.408943 254.655815 
L 66.441408 254.655815 
L 66.506339 254.655815 
L 66.636201 254.655815 
L 66.895925 254.655815 
L 67.415372 254.655815 
L 68.454266 254.655815 
L 70.532055 254.655815 
L 74.687634 254.655815 
L 81.180725 254.655815 
L 87.673815 254.655815 
L 94.166906 254.655815 
L 100.659997 254.655815 
L 107.153088 254.655815 
L 113.646179 254.655815 
L 120.13927 254.655815 
L 126.632361 254.655815 
L 131.307386 254.655815 
L 131.313879 254.653839 
L 131.326866 254.648447 
L 131.352838 254.640695 
L 131.372317 254.641881 
L 131.377008 254.646958 
L 131.38639 254.657282 
L 131.405153 254.67402 
L 131.433828 254.693879 
L 131.491177 254.723128 
L 131.548009 254.744939 
L 131.661675 254.779037 
L 131.854925 254.802284 
L 132.241425 254.714063 
L 132.818398 254.246576 
L 133.972344 252.478281 
L 136.135585 248.131891 
L 138.431981 243.345553 
L 143.002327 233.882645 
L 149.495418 220.442421 
L 155.988509 207.033116 
L 162.4816 193.640902 
L 168.974691 180.276621 
L 175.467782 166.939097 
L 181.960873 153.63186 
L 188.453964 140.358928 
L 194.947055 127.1253 
L 201.440146 113.945118 
L 207.933237 100.866819 
L 214.426327 88.148422 
L 220.919418 76.610305 
L 227.412509 67.457806 
L 233.9056 61.099992 
L 240.398691 57.01606 
L 246.891782 54.445609 
L 253.384873 52.850066 
L 259.877964 51.862191 
L 266.371055 51.249959 
L 272.864146 50.868458 
L 279.357237 50.631856 
L 285.850327 50.483716 
L 292.343418 50.392253 
L 298.836509 50.334448 
L 305.3296 50.299198 
L 311.822691 50.276427 
L 318.315782 50.262966 
L 324.808873 50.253802 
L 331.301964 50.248782 
L 337.795055 50.244913 
L 344.288146 50.243159 
L 350.781237 50.241359 
L 357.274327 50.240862 
L 363.767418 50.23988 
L 370.260509 50.239862 
L 376.7536 50.23921 
L 383.246691 50.239369 
L 389.739782 50.23886 
L 391.031023 50.239342 
" clip-path="url(#pfd70cb3118)" style="fill: none; stroke: #2ca02c; stroke-width: 1.5; stroke-linecap: square"/>
   </g>
   <g id="line2d_28">
    <path d="M 66.376477 261.216 
L 66.408943 261.216 
L 66.441408 261.216 
L 66.506339 261.216 
L 66.636201 261.216 
L 66.895925 261.216 
L 67.415372 261.216 
L 68.454266 261.216 
L 70.532055 261.216 
L 74.687634 261.216 
L 81.180725 261.216 
L 87.673815 261.216 
L 94.166906 261.216 
L 100.659997 261.216 
L 107.153088 261.216 
L 113.646179 261.216 
L 120.13927 261.216 
L 126.632361 261.216 
L 131.307386 261.216 
L 131.313879 237.024 
L 131.326866 188.64 
L 131.352838 91.872 
L 131.372317 19.296 
L 131.377008 19.296 
L 131.38639 19.296 
L 131.405153 19.296 
L 131.433828 19.296 
L 131.491177 19.296 
L 131.548009 19.296 
L 131.661675 19.296 
L 131.854925 19.296 
L 132.241425 19.296 
L 132.818398 19.296 
L 133.972344 19.296 
L 136.135585 19.296 
L 138.431981 19.296 
L 143.002327 19.296 
L 149.495418 19.296 
L 155.988509 19.296 
L 162.4816 19.296 
L 168.974691 19.296 
L 175.467782 19.296 
L 181.960873 19.296 
L 188.453964 19.296 
L 194.947055 19.296 
L 201.440146 19.296 
L 207.933237 19.296 
L 214.426327 19.296 
L 220.919418 19.296 
L 227.412509 19.296 
L 233.9056 19.296 
L 240.398691 19.296 
L 246.891782 19.296 
L 253.384873 19.296 
L 259.877964 19.296 
L 266.371055 19.296 
L 272.864146 19.296 
L 279.357237 19.296 
L 285.850327 19.296 
L 292.343418 19.296 
L 298.836509 19.296 
L 305.3296 19.296 
L 311.822691 19.296 
L 318.315782 19.296 
L 324.808873 19.296 
L 331.301964 19.296 
L 337.795055 19.296 
L 344.288146 19.296 
L 350.781237 19.296 
L 357.274327 19.296 
L 363.767418 19.296 
L 370.260509 19.296 
L 376.7536 19.296 
L 383.246691 19.296 
L 389.739782 19.296 
L 391.031023 19.296 
" clip-path="url(#pfd70cb3118)" style="fill: none; stroke: #d62728; stroke-width: 1.5; stroke-linecap: square"/>
   </g>
   <g id="line2d_29">
    <path d="M 66.376477 255.172534 
L 66.408943 255.172534 
L 66.441408 255.172534 
L 66.506339 255.172534 
L 66.636201 255.172534 
L 66.895925 255.172534 
L 67.415372 255.172534 
L 68.454266 255.172534 
L 70.532055 255.172534 
L 74.687634 255.172534 
L 81.180725 255.172534 
L 87.673815 255.172534 
L 94.166906 255.172534 
L 100.659997 255.172534 
L 107.153088 255.172534 
L 113.646179 255.172534 
L 120.13927 255.172534 
L 126.632361 255.172534 
L 131.307386 255.172534 
L 131.313879 255.170508 
L 131.326866 255.164431 
L 131.352838 255.157251 
L 131.372317 255.158629 
L 131.376518 255.163043 
L 131.384918 255.172174 
L 131.401718 255.187047 
L 131.429037 255.20573 
L 131.483674 255.23348 
L 131.537872 255.254488 
L 131.646268 255.288496 
L 131.836252 255.315086 
L 132.21622 255.236337 
L 132.790222 254.776679 
L 133.938228 253.004828 
L 136.050012 248.732949 
L 138.341604 243.938798 
L 142.798 234.674628 
L 149.291091 221.18085 
L 155.784181 207.718038 
L 162.277272 194.273322 
L 168.770363 180.85713 
L 175.263454 167.468159 
L 181.756545 154.110888 
L 188.249636 140.788086 
L 194.742727 127.505326 
L 201.235818 114.275745 
L 207.728909 101.144298 
L 214.222 88.353751 
L 220.715091 76.708194 
L 227.208181 67.440474 
L 233.701272 61.012427 
L 240.194363 56.907688 
L 246.687454 54.343317 
L 253.180545 52.763668 
L 259.673636 51.7933 
L 266.166727 51.196474 
L 272.659818 50.827268 
L 279.152909 50.600019 
L 285.646 50.458695 
L 292.139091 50.372164 
L 298.632181 50.317774 
L 305.125272 50.284959 
L 311.618363 50.263798 
L 318.111454 50.251501 
L 324.604545 50.243058 
L 331.097636 50.238596 
L 337.590727 50.235031 
L 344.083818 50.233555 
L 350.576909 50.231869 
L 357.07 50.231525 
L 363.563091 50.230571 
L 370.056181 50.230652 
L 376.549272 50.229991 
L 383.042363 50.230226 
L 389.535454 50.229688 
L 391.031023 50.230211 
" clip-path="url(#pfd70cb3118)" style="fill: none; stroke: #9467bd; stroke-width: 1.5; stroke-linecap: square"/>
   </g>
   <g id="line2d_30">
    <path d="M 66.376477 261.216 
L 66.408943 261.216 
L 66.441408 261.216 
L 66.506339 261.216 
L 66.636201 261.216 
L 66.895925 261.216 
L 67.415372 261.216 
L 68.454266 261.216 
L 70.532055 261.216 
L 74.687634 261.216 
L 81.180725 261.216 
L 87.673815 261.216 
L 94.166906 261.216 
L 100.659997 261.216 
L 107.153088 261.216 
L 113.646179 261.216 
L 120.13927 261.216 
L 126.632361 261.216 
L 131.307386 261.216 
L 131.313879 237.024 
L 131.326866 188.64 
L 131.352838 91.872 
L 131.372317 19.296 
L 131.376518 19.296 
L 131.384918 19.296 
L 131.401718 19.296 
L 131.429037 19.296 
L 131.483674 19.296 
L 131.537872 19.296 
L 131.646268 19.296 
L 131.836252 19.296 
L 132.21622 19.296 
L 132.790222 19.296 
L 133.938228 19.296 
L 136.050012 19.296 
L 138.341604 19.296 
L 142.798 19.296 
L 149.291091 19.296 
L 155.784181 19.296 
L 162.277272 19.296 
L 168.770363 19.296 
L 175.263454 19.296 
L 181.756545 19.296 
L 188.249636 19.296 
L 194.742727 19.296 
L 201.235818 19.296 
L 207.728909 19.296 
L 214.222 19.296 
L 220.715091 19.296 
L 227.208181 19.296 
L 233.701272 19.296 
L 240.194363 19.296 
L 246.687454 19.296 
L 253.180545 19.296 
L 259.673636 19.296 
L 266.166727 19.296 
L 272.659818 19.296 
L 279.152909 19.296 
L 285.646 19.296 
L 292.139091 19.296 
L 298.632181 19.296 
L 305.125272 19.296 
L 311.618363 19.296 
L 318.111454 19.296 
L 324.604545 19.296 
L 331.097636 19.296 
L 337.590727 19.296 
L 344.083818 19.296 
L 350.576909 19.296 
L 357.07 19.296 
L 363.563091 19.296 
L 370.056181 19.296 
L 376.549272 19.296 
L 383.042363 19.296 
L 389.535454 19.296 
L 391.031023 19.296 
" clip-path="url(#pfd70cb3118)" style="fill: none; stroke: #8c564b; stroke-width: 1.5; stroke-linecap: square"/>
   </g>
   <g id="line2d_31">
    <path d="M 66.376477 255.571132 
L 66.408943 255.571132 
L 66.441408 255.571132 
L 66.506339 255.571132 
L 66.636201 255.571132 
L 66.895925 255.571132 
L 67.415372 255.571132 
L 68.454266 255.571132 
L 70.532055 255.571132 
L 74.687634 255.571132 
L 81.180725 255.571132 
L 87.673815 255.571132 
L 94.166906 255.571132 
L 100.659997 255.571132 
L 107.153088 255.571132 
L 113.646179 255.571132 
L 120.13927 255.571132 
L 126.632361 255.571132 
L 131.307386 255.571132 
L 131.313879 255.569045 
L 131.326866 255.563071 
L 131.352838 255.555695 
L 131.372317 255.556768 
L 131.376127 255.560625 
L 131.383747 255.568645 
L 131.398986 255.581745 
L 131.425326 255.599186 
L 131.478007 255.625407 
L 131.530384 255.645783 
L 131.635139 255.679811 
L 131.826184 255.709469 
L 132.208271 255.633728 
L 132.785726 255.165392 
L 133.940637 253.351045 
L 136.021004 249.104544 
L 138.325825 244.266021 
L 142.734336 235.064447 
L 149.227427 221.517812 
L 155.720518 208.001474 
L 162.213609 194.504823 
L 168.7067 181.037047 
L 175.199791 167.597177 
L 181.692882 154.190342 
L 188.185973 140.818829 
L 194.679063 127.487754 
L 201.172154 114.210639 
L 207.665245 101.030894 
L 214.158336 88.188178 
L 220.651427 76.490806 
L 227.144518 67.194987 
L 233.637609 60.779221 
L 240.1307 56.712249 
L 246.623791 54.191443 
L 253.116882 52.650619 
L 259.609973 51.711476 
L 266.103063 51.138158 
L 272.596154 50.786101 
L 279.089245 50.571006 
L 285.582336 50.438188 
L 292.075427 50.357501 
L 298.568518 50.307107 
L 305.061609 50.276982 
L 311.5547 50.257634 
L 318.047791 50.246545 
L 324.540882 50.238907 
L 331.033973 50.234979 
L 337.527063 50.231767 
L 344.020154 50.230531 
L 350.513245 50.228999 
L 357.006336 50.228767 
L 363.499427 50.227879 
L 369.992518 50.228019 
L 376.485609 50.227385 
L 382.9787 50.227656 
L 389.471791 50.227129 
L 391.031023 50.227649 
" clip-path="url(#pfd70cb3118)" style="fill: none; stroke: #e377c2; stroke-width: 1.5; stroke-linecap: square"/>
   </g>
   <g id="line2d_32">
    <path d="M 66.376477 261.216 
L 66.408943 261.216 
L 66.441408 261.216 
L 66.506339 261.216 
L 66.636201 261.216 
L 66.895925 261.216 
L 67.415372 261.216 
L 68.454266 261.216 
L 70.532055 261.216 
L 74.687634 261.216 
L 81.180725 261.216 
L 87.673815 261.216 
L 94.166906 261.216 
L 100.659997 261.216 
L 107.153088 261.216 
L 113.646179 261.216 
L 120.13927 261.216 
L 126.632361 261.216 
L 131.307386 261.216 
L 131.313879 237.024 
L 131.326866 188.64 
L 131.352838 91.872 
L 131.372317 19.296 
L 131.376127 19.296 
L 131.383747 19.296 
L 131.398986 19.296 
L 131.425326 19.296 
L 131.478007 19.296 
L 131.530384 19.296 
L 131.635139 19.296 
L 131.826184 19.296 
L 132.208271 19.296 
L 132.785726 19.296 
L 133.940637 19.296 
L 136.021004 19.296 
L 138.325825 19.296 
L 142.734336 19.296 
L 149.227427 19.296 
L 155.720518 19.296 
L 162.213609 19.296 
L 168.7067 19.296 
L 175.199791 19.296 
L 181.692882 19.296 
L 188.185973 19.296 
L 194.679063 19.296 
L 201.172154 19.296 
L 207.665245 19.296 
L 214.158336 19.296 
L 220.651427 19.296 
L 227.144518 19.296 
L 233.637609 19.296 
L 240.1307 19.296 
L 246.623791 19.296 
L 253.116882 19.296 
L 259.609973 19.296 
L 266.103063 19.296 
L 272.596154 19.296 
L 279.089245 19.296 
L 285.582336 19.296 
L 292.075427 19.296 
L 298.568518 19.296 
L 305.061609 19.296 
L 311.5547 19.296 
L 318.047791 19.296 
L 324.540882 19.296 
L 331.033973 19.296 
L 337.527063 19.296 
L 344.020154 19.296 
L 350.513245 19.296 
L 357.006336 19.296 
L 363.499427 19.296 
L 369.992518 19.296 
L 376.485609 19.296 
L 382.9787 19.296 
L 389.471791 19.296 
L 391.031023 19.296 
" clip-path="url(#pfd70cb3118)" style="fill: none; stroke: #7f7f7f; stroke-width: 1.5; stroke-linecap: square"/>
   </g>
   <g id="patch_3">
    <path d="M 50.14375 273.312 
L 50.14375 7.2 
" style="fill: none; stroke: #000000; stroke-width: 0.8; stroke-linejoin: miter; stroke-linecap: square"/>
   </g>
   <g id="patch_4">
    <path d="M 407.26375 273.312 
L 407.26375 7.2 
" style="fill: none; stroke: #000000; stroke-width: 0.8; stroke-linejoin: miter; stroke-linecap: square"/>
   </g>
   <g id="patch_5">
    <path d="M 50.14375 273.312 
L 407.26375 273.312 
" style="fill: none; stroke: #000000; stroke-width: 0.8; stroke-linejoin: miter; stroke-linecap: square"/>
   </g>
   <g id="patch_6">
    <path d="M 50.14375 7.2 
L 407.26375 7.2 
" style="fill: none; stroke: #000000; stroke-width: 0.8; stroke-linejoin: miter; stroke-linecap: square"/>
   </g>
   <g id="legend_1">
    <g id="patch_7">
     <path d="M 423.54855 274.40625 
L 615.889175 274.40625 
Q 617.889175 274.40625 617.889175 272.40625 
L 617.889175 9.2 
Q 617.889175 7.2 615.889175 7.2 
L 423.54855 7.2 
Q 421.54855 7.2 421.54855 9.2 
L 421.54855 272.40625 
Q 421.54855 274.40625 423.54855 274.40625 
z
" style="fill: #ffffff; opacity: 0.8; stroke: #cccccc; stroke-linejoin: miter"/>
    </g>
    <g id="line2d_33">
     <path d="M 425.54855 15.298437 
L 435.54855 15.298437 
L 445.54855 15.298437 
" style="fill: none; stroke: #1f77b4; stroke-width: 1.5; stroke-linecap: square"/>
    </g>
    <g id="text_18">
     <!-- corner = ss, temperature = -40 -->
     <g transform="translate(453.54855 18.798437) scale(0.1 -0.1)">
      <defs>
       <path id="DejaVuSans-63" d="M 3122 3366 
L 3122 2828 
Q 2878 2963 2633 3030 
Q 2388 3097 2138 3097 
Q 1578 3097 1268 2742 
Q 959 2388 959 1747 
Q 959 1106 1268 751 
Q 1578 397 2138 397 
Q 2388 397 2633 464 
Q 2878 531 3122 666 
L 3122 134 
Q 2881 22 2623 -34 
Q 2366 -91 2075 -91 
Q 1284 -91 818 406 
Q 353 903 353 1747 
Q 353 2603 823 3093 
Q 1294 3584 2113 3584 
Q 2378 3584 2631 3529 
Q 2884 3475 3122 3366 
z
" transform="scale(0.015625)"/>
       <path id="DejaVuSans-72" d="M 2631 2963 
Q 2534 3019 2420 3045 
Q 2306 3072 2169 3072 
Q 1681 3072 1420 2755 
Q 1159 2438 1159 1844 
L 1159 0 
L 581 0 
L 581 3500 
L 1159 3500 
L 1159 2956 
Q 1341 3275 1631 3429 
Q 1922 3584 2338 3584 
Q 2397 3584 2469 3576 
Q 2541 3569 2628 3553 
L 2631 2963 
z
" transform="scale(0.015625)"/>
       <path id="DejaVuSans-3d" d="M 678 2906 
L 4684 2906 
L 4684 2381 
L 678 2381 
L 678 2906 
z
M 678 1631 
L 4684 1631 
L 4684 1100 
L 678 1100 
L 678 1631 
z
" transform="scale(0.015625)"/>
       <path id="DejaVuSans-61" d="M 2194 1759 
Q 1497 1759 1228 1600 
Q 959 1441 959 1056 
Q 959 750 1161 570 
Q 1363 391 1709 391 
Q 2188 391 2477 730 
Q 2766 1069 2766 1631 
L 2766 1759 
L 2194 1759 
z
M 3341 1997 
L 3341 0 
L 2766 0 
L 2766 531 
Q 2569 213 2275 61 
Q 1981 -91 1556 -91 
Q 1019 -91 701 211 
Q 384 513 384 1019 
Q 384 1609 779 1909 
Q 1175 2209 1959 2209 
L 2766 2209 
L 2766 2266 
Q 2766 2663 2505 2880 
Q 2244 3097 1772 3097 
Q 1472 3097 1187 3025 
Q 903 2953 641 2809 
L 641 3341 
Q 956 3463 1253 3523 
Q 1550 3584 1831 3584 
Q 2591 3584 2966 3190 
Q 3341 2797 3341 1997 
z
" transform="scale(0.015625)"/>
       <path id="DejaVuSans-2d" d="M 313 2009 
L 1997 2009 
L 1997 1497 
L 313 1497 
L 313 2009 
z
" transform="scale(0.015625)"/>
      </defs>
      <use xlink:href="#DejaVuSans-63"/>
      <use xlink:href="#DejaVuSans-6f" x="54.980469"/>
      <use xlink:href="#DejaVuSans-72" x="116.162109"/>
      <use xlink:href="#DejaVuSans-6e" x="155.525391"/>
      <use xlink:href="#DejaVuSans-65" x="218.904297"/>
      <use xlink:href="#DejaVuSans-72" x="280.427734"/>
      <use xlink:href="#DejaVuSans-20" x="321.541016"/>
      <use xlink:href="#DejaVuSans-3d" x="353.328125"/>
      <use xlink:href="#DejaVuSans-20" x="437.117188"/>
      <use xlink:href="#DejaVuSans-73" x="468.904297"/>
      <use xlink:href="#DejaVuSans-73" x="521.003906"/>
      <use xlink:href="#DejaVuSans-2c" x="573.103516"/>
      <use xlink:href="#DejaVuSans-20" x="604.890625"/>
      <use xlink:href="#DejaVuSans-74" x="636.677734"/>
      <use xlink:href="#DejaVuSans-65" x="675.886719"/>
      <use xlink:href="#DejaVuSans-6d" x="737.410156"/>
      <use xlink:href="#DejaVuSans-70" x="834.822266"/>
      <use xlink:href="#DejaVuSans-65" x="898.298828"/>
      <use xlink:href="#DejaVuSans-72" x="959.822266"/>
      <use xlink:href="#DejaVuSans-61" x="1000.935547"/>
      <use xlink:href="#DejaVuSans-74" x="1062.214844"/>
      <use xlink:href="#DejaVuSans-75" x="1101.423828"/>
      <use xlink:href="#DejaVuSans-72" x="1164.802734"/>
      <use xlink:href="#DejaVuSans-65" x="1203.666016"/>
      <use xlink:href="#DejaVuSans-20" x="1265.189453"/>
      <use xlink:href="#DejaVuSans-3d" x="1296.976562"/>
      <use xlink:href="#DejaVuSans-20" x="1380.765625"/>
      <use xlink:href="#DejaVuSans-2d" x="1412.552734"/>
      <use xlink:href="#DejaVuSans-34" x="1448.636719"/>
      <use xlink:href="#DejaVuSans-30" x="1512.259766"/>
     </g>
    </g>
    <g id="line2d_34">
     <path d="M 425.54855 29.976562 
L 435.54855 29.976562 
L 445.54855 29.976562 
" style="fill: none; stroke: #ff7f0e; stroke-width: 1.5; stroke-linecap: square"/>
    </g>
    <g id="text_19">
     <!-- corner = ss, temperature = -40 -->
     <g transform="translate(453.54855 33.476562) scale(0.1 -0.1)">
      <use xlink:href="#DejaVuSans-63"/>
      <use xlink:href="#DejaVuSans-6f" x="54.980469"/>
      <use xlink:href="#DejaVuSans-72" x="116.162109"/>
      <use xlink:href="#DejaVuSans-6e" x="155.525391"/>
      <use xlink:href="#DejaVuSans-65" x="218.904297"/>
      <use xlink:href="#DejaVuSans-72" x="280.427734"/>
      <use xlink:href="#DejaVuSans-20" x="321.541016"/>
      <use xlink:href="#DejaVuSans-3d" x="353.328125"/>
      <use xlink:href="#DejaVuSans-20" x="437.117188"/>
      <use xlink:href="#DejaVuSans-73" x="468.904297"/>
      <use xlink:href="#DejaVuSans-73" x="521.003906"/>
      <use xlink:href="#DejaVuSans-2c" x="573.103516"/>
      <use xlink:href="#DejaVuSans-20" x="604.890625"/>
      <use xlink:href="#DejaVuSans-74" x="636.677734"/>
      <use xlink:href="#DejaVuSans-65" x="675.886719"/>
      <use xlink:href="#DejaVuSans-6d" x="737.410156"/>
      <use xlink:href="#DejaVuSans-70" x="834.822266"/>
      <use xlink:href="#DejaVuSans-65" x="898.298828"/>
      <use xlink:href="#DejaVuSans-72" x="959.822266"/>
      <use xlink:href="#DejaVuSans-61" x="1000.935547"/>
      <use xlink:href="#DejaVuSans-74" x="1062.214844"/>
      <use xlink:href="#DejaVuSans-75" x="1101.423828"/>
      <use xlink:href="#DejaVuSans-72" x="1164.802734"/>
      <use xlink:href="#DejaVuSans-65" x="1203.666016"/>
      <use xlink:href="#DejaVuSans-20" x="1265.189453"/>
      <use xlink:href="#DejaVuSans-3d" x="1296.976562"/>
      <use xlink:href="#DejaVuSans-20" x="1380.765625"/>
      <use xlink:href="#DejaVuSans-2d" x="1412.552734"/>
      <use xlink:href="#DejaVuSans-34" x="1448.636719"/>
      <use xlink:href="#DejaVuSans-30" x="1512.259766"/>
     </g>
    </g>
    <g id="line2d_35">
     <path d="M 425.54855 44.654687 
L 435.54855 44.654687 
L 445.54855 44.654687 
" style="fill: none; stroke: #2ca02c; stroke-width: 1.5; stroke-linecap: square"/>
    </g>
    <g id="text_20">
     <!-- corner = tt, temperature = -40 -->
     <g transform="translate(453.54855 48.154687) scale(0.1 -0.1)">
      <use xlink:href="#DejaVuSans-63"/>
      <use xlink:href="#DejaVuSans-6f" x="54.980469"/>
      <use xlink:href="#DejaVuSans-72" x="116.162109"/>
      <use xlink:href="#DejaVuSans-6e" x="155.525391"/>
      <use xlink:href="#DejaVuSans-65" x="218.904297"/>
      <use xlink:href="#DejaVuSans-72" x="280.427734"/>
      <use xlink:href="#DejaVuSans-20" x="321.541016"/>
      <use xlink:href="#DejaVuSans-3d" x="353.328125"/>
      <use xlink:href="#DejaVuSans-20" x="437.117188"/>
      <use xlink:href="#DejaVuSans-74" x="468.904297"/>
      <use xlink:href="#DejaVuSans-74" x="508.113281"/>
      <use xlink:href="#DejaVuSans-2c" x="547.322266"/>
      <use xlink:href="#DejaVuSans-20" x="579.109375"/>
      <use xlink:href="#DejaVuSans-74" x="610.896484"/>
      <use xlink:href="#DejaVuSans-65" x="650.105469"/>
      <use xlink:href="#DejaVuSans-6d" x="711.628906"/>
      <use xlink:href="#DejaVuSans-70" x="809.041016"/>
      <use xlink:href="#DejaVuSans-65" x="872.517578"/>
      <use xlink:href="#DejaVuSans-72" x="934.041016"/>
      <use xlink:href="#DejaVuSans-61" x="975.154297"/>
      <use xlink:href="#DejaVuSans-74" x="1036.433594"/>
      <use xlink:href="#DejaVuSans-75" x="1075.642578"/>
      <use xlink:href="#DejaVuSans-72" x="1139.021484"/>
      <use xlink:href="#DejaVuSans-65" x="1177.884766"/>
      <use xlink:href="#DejaVuSans-20" x="1239.408203"/>
      <use xlink:href="#DejaVuSans-3d" x="1271.195312"/>
      <use xlink:href="#DejaVuSans-20" x="1354.984375"/>
      <use xlink:href="#DejaVuSans-2d" x="1386.771484"/>
      <use xlink:href="#DejaVuSans-34" x="1422.855469"/>
      <use xlink:href="#DejaVuSans-30" x="1486.478516"/>
     </g>
    </g>
    <g id="line2d_36">
     <path d="M 425.54855 59.332812 
L 435.54855 59.332812 
L 445.54855 59.332812 
" style="fill: none; stroke: #d62728; stroke-width: 1.5; stroke-linecap: square"/>
    </g>
    <g id="text_21">
     <!-- corner = tt, temperature = -40 -->
     <g transform="translate(453.54855 62.832812) scale(0.1 -0.1)">
      <use xlink:href="#DejaVuSans-63"/>
      <use xlink:href="#DejaVuSans-6f" x="54.980469"/>
      <use xlink:href="#DejaVuSans-72" x="116.162109"/>
      <use xlink:href="#DejaVuSans-6e" x="155.525391"/>
      <use xlink:href="#DejaVuSans-65" x="218.904297"/>
      <use xlink:href="#DejaVuSans-72" x="280.427734"/>
      <use xlink:href="#DejaVuSans-20" x="321.541016"/>
      <use xlink:href="#DejaVuSans-3d" x="353.328125"/>
      <use xlink:href="#DejaVuSans-20" x="437.117188"/>
      <use xlink:href="#DejaVuSans-74" x="468.904297"/>
      <use xlink:href="#DejaVuSans-74" x="508.113281"/>
      <use xlink:href="#DejaVuSans-2c" x="547.322266"/>
      <use xlink:href="#DejaVuSans-20" x="579.109375"/>
      <use xlink:href="#DejaVuSans-74" x="610.896484"/>
      <use xlink:href="#DejaVuSans-65" x="650.105469"/>
      <use xlink:href="#DejaVuSans-6d" x="711.628906"/>
      <use xlink:href="#DejaVuSans-70" x="809.041016"/>
      <use xlink:href="#DejaVuSans-65" x="872.517578"/>
      <use xlink:href="#DejaVuSans-72" x="934.041016"/>
      <use xlink:href="#DejaVuSans-61" x="975.154297"/>
      <use xlink:href="#DejaVuSans-74" x="1036.433594"/>
      <use xlink:href="#DejaVuSans-75" x="1075.642578"/>
      <use xlink:href="#DejaVuSans-72" x="1139.021484"/>
      <use xlink:href="#DejaVuSans-65" x="1177.884766"/>
      <use xlink:href="#DejaVuSans-20" x="1239.408203"/>
      <use xlink:href="#DejaVuSans-3d" x="1271.195312"/>
      <use xlink:href="#DejaVuSans-20" x="1354.984375"/>
      <use xlink:href="#DejaVuSans-2d" x="1386.771484"/>
      <use xlink:href="#DejaVuSans-34" x="1422.855469"/>
      <use xlink:href="#DejaVuSans-30" x="1486.478516"/>
     </g>
    </g>
    <g id="line2d_37">
     <path d="M 425.54855 74.010938 
L 435.54855 74.010938 
L 445.54855 74.010938 
" style="fill: none; stroke: #9467bd; stroke-width: 1.5; stroke-linecap: square"/>
    </g>
    <g id="text_22">
     <!-- corner = ff, temperature = -40 -->
     <g transform="translate(453.54855 77.510938) scale(0.1 -0.1)">
      <defs>
       <path id="DejaVuSans-66" d="M 2375 4863 
L 2375 4384 
L 1825 4384 
Q 1516 4384 1395 4259 
Q 1275 4134 1275 3809 
L 1275 3500 
L 2222 3500 
L 2222 3053 
L 1275 3053 
L 1275 0 
L 697 0 
L 697 3053 
L 147 3053 
L 147 3500 
L 697 3500 
L 697 3744 
Q 697 4328 969 4595 
Q 1241 4863 1831 4863 
L 2375 4863 
z
" transform="scale(0.015625)"/>
      </defs>
      <use xlink:href="#DejaVuSans-63"/>
      <use xlink:href="#DejaVuSans-6f" x="54.980469"/>
      <use xlink:href="#DejaVuSans-72" x="116.162109"/>
      <use xlink:href="#DejaVuSans-6e" x="155.525391"/>
      <use xlink:href="#DejaVuSans-65" x="218.904297"/>
      <use xlink:href="#DejaVuSans-72" x="280.427734"/>
      <use xlink:href="#DejaVuSans-20" x="321.541016"/>
      <use xlink:href="#DejaVuSans-3d" x="353.328125"/>
      <use xlink:href="#DejaVuSans-20" x="437.117188"/>
      <use xlink:href="#DejaVuSans-66" x="468.904297"/>
      <use xlink:href="#DejaVuSans-66" x="504.109375"/>
      <use xlink:href="#DejaVuSans-2c" x="539.314453"/>
      <use xlink:href="#DejaVuSans-20" x="571.101562"/>
      <use xlink:href="#DejaVuSans-74" x="602.888672"/>
      <use xlink:href="#DejaVuSans-65" x="642.097656"/>
      <use xlink:href="#DejaVuSans-6d" x="703.621094"/>
      <use xlink:href="#DejaVuSans-70" x="801.033203"/>
      <use xlink:href="#DejaVuSans-65" x="864.509766"/>
      <use xlink:href="#DejaVuSans-72" x="926.033203"/>
      <use xlink:href="#DejaVuSans-61" x="967.146484"/>
      <use xlink:href="#DejaVuSans-74" x="1028.425781"/>
      <use xlink:href="#DejaVuSans-75" x="1067.634766"/>
      <use xlink:href="#DejaVuSans-72" x="1131.013672"/>
      <use xlink:href="#DejaVuSans-65" x="1169.876953"/>
      <use xlink:href="#DejaVuSans-20" x="1231.400391"/>
      <use xlink:href="#DejaVuSans-3d" x="1263.1875"/>
      <use xlink:href="#DejaVuSans-20" x="1346.976562"/>
      <use xlink:href="#DejaVuSans-2d" x="1378.763672"/>
      <use xlink:href="#DejaVuSans-34" x="1414.847656"/>
      <use xlink:href="#DejaVuSans-30" x="1478.470703"/>
     </g>
    </g>
    <g id="line2d_38">
     <path d="M 425.54855 88.689062 
L 435.54855 88.689062 
L 445.54855 88.689062 
" style="fill: none; stroke: #8c564b; stroke-width: 1.5; stroke-linecap: square"/>
    </g>
    <g id="text_23">
     <!-- corner = ff, temperature = -40 -->
     <g transform="translate(453.54855 92.189062) scale(0.1 -0.1)">
      <use xlink:href="#DejaVuSans-63"/>
      <use xlink:href="#DejaVuSans-6f" x="54.980469"/>
      <use xlink:href="#DejaVuSans-72" x="116.162109"/>
      <use xlink:href="#DejaVuSans-6e" x="155.525391"/>
      <use xlink:href="#DejaVuSans-65" x="218.904297"/>
      <use xlink:href="#DejaVuSans-72" x="280.427734"/>
      <use xlink:href="#DejaVuSans-20" x="321.541016"/>
      <use xlink:href="#DejaVuSans-3d" x="353.328125"/>
      <use xlink:href="#DejaVuSans-20" x="437.117188"/>
      <use xlink:href="#DejaVuSans-66" x="468.904297"/>
      <use xlink:href="#DejaVuSans-66" x="504.109375"/>
      <use xlink:href="#DejaVuSans-2c" x="539.314453"/>
      <use xlink:href="#DejaVuSans-20" x="571.101562"/>
      <use xlink:href="#DejaVuSans-74" x="602.888672"/>
      <use xlink:href="#DejaVuSans-65" x="642.097656"/>
      <use xlink:href="#DejaVuSans-6d" x="703.621094"/>
      <use xlink:href="#DejaVuSans-70" x="801.033203"/>
      <use xlink:href="#DejaVuSans-65" x="864.509766"/>
      <use xlink:href="#DejaVuSans-72" x="926.033203"/>
      <use xlink:href="#DejaVuSans-61" x="967.146484"/>
      <use xlink:href="#DejaVuSans-74" x="1028.425781"/>
      <use xlink:href="#DejaVuSans-75" x="1067.634766"/>
      <use xlink:href="#DejaVuSans-72" x="1131.013672"/>
      <use xlink:href="#DejaVuSans-65" x="1169.876953"/>
      <use xlink:href="#DejaVuSans-20" x="1231.400391"/>
      <use xlink:href="#DejaVuSans-3d" x="1263.1875"/>
      <use xlink:href="#DejaVuSans-20" x="1346.976562"/>
      <use xlink:href="#DejaVuSans-2d" x="1378.763672"/>
      <use xlink:href="#DejaVuSans-34" x="1414.847656"/>
      <use xlink:href="#DejaVuSans-30" x="1478.470703"/>
     </g>
    </g>
    <g id="line2d_39">
     <path d="M 425.54855 103.367188 
L 435.54855 103.367188 
L 445.54855 103.367188 
" style="fill: none; stroke: #e377c2; stroke-width: 1.5; stroke-linecap: square"/>
    </g>
    <g id="text_24">
     <!-- corner = ss, temperature = 27 -->
     <g transform="translate(453.54855 106.867188) scale(0.1 -0.1)">
      <use xlink:href="#DejaVuSans-63"/>
      <use xlink:href="#DejaVuSans-6f" x="54.980469"/>
      <use xlink:href="#DejaVuSans-72" x="116.162109"/>
      <use xlink:href="#DejaVuSans-6e" x="155.525391"/>
      <use xlink:href="#DejaVuSans-65" x="218.904297"/>
      <use xlink:href="#DejaVuSans-72" x="280.427734"/>
      <use xlink:href="#DejaVuSans-20" x="321.541016"/>
      <use xlink:href="#DejaVuSans-3d" x="353.328125"/>
      <use xlink:href="#DejaVuSans-20" x="437.117188"/>
      <use xlink:href="#DejaVuSans-73" x="468.904297"/>
      <use xlink:href="#DejaVuSans-73" x="521.003906"/>
      <use xlink:href="#DejaVuSans-2c" x="573.103516"/>
      <use xlink:href="#DejaVuSans-20" x="604.890625"/>
      <use xlink:href="#DejaVuSans-74" x="636.677734"/>
      <use xlink:href="#DejaVuSans-65" x="675.886719"/>
      <use xlink:href="#DejaVuSans-6d" x="737.410156"/>
      <use xlink:href="#DejaVuSans-70" x="834.822266"/>
      <use xlink:href="#DejaVuSans-65" x="898.298828"/>
      <use xlink:href="#DejaVuSans-72" x="959.822266"/>
      <use xlink:href="#DejaVuSans-61" x="1000.935547"/>
      <use xlink:href="#DejaVuSans-74" x="1062.214844"/>
      <use xlink:href="#DejaVuSans-75" x="1101.423828"/>
      <use xlink:href="#DejaVuSans-72" x="1164.802734"/>
      <use xlink:href="#DejaVuSans-65" x="1203.666016"/>
      <use xlink:href="#DejaVuSans-20" x="1265.189453"/>
      <use xlink:href="#DejaVuSans-3d" x="1296.976562"/>
      <use xlink:href="#DejaVuSans-20" x="1380.765625"/>
      <use xlink:href="#DejaVuSans-32" x="1412.552734"/>
      <use xlink:href="#DejaVuSans-37" x="1476.175781"/>
     </g>
    </g>
    <g id="line2d_40">
     <path d="M 425.54855 118.045312 
L 435.54855 118.045312 
L 445.54855 118.045312 
" style="fill: none; stroke: #7f7f7f; stroke-width: 1.5; stroke-linecap: square"/>
    </g>
    <g id="text_25">
     <!-- corner = ss, temperature = 27 -->
     <g transform="translate(453.54855 121.545312) scale(0.1 -0.1)">
      <use xlink:href="#DejaVuSans-63"/>
      <use xlink:href="#DejaVuSans-6f" x="54.980469"/>
      <use xlink:href="#DejaVuSans-72" x="116.162109"/>
      <use xlink:href="#DejaVuSans-6e" x="155.525391"/>
      <use xlink:href="#DejaVuSans-65" x="218.904297"/>
      <use xlink:href="#DejaVuSans-72" x="280.427734"/>
      <use xlink:href="#DejaVuSans-20" x="321.541016"/>
      <use xlink:href="#DejaVuSans-3d" x="353.328125"/>
      <use xlink:href="#DejaVuSans-20" x="437.117188"/>
      <use xlink:href="#DejaVuSans-73" x="468.904297"/>
      <use xlink:href="#DejaVuSans-73" x="521.003906"/>
      <use xlink:href="#DejaVuSans-2c" x="573.103516"/>
      <use xlink:href="#DejaVuSans-20" x="604.890625"/>
      <use xlink:href="#DejaVuSans-74" x="636.677734"/>
      <use xlink:href="#DejaVuSans-65" x="675.886719"/>
      <use xlink:href="#DejaVuSans-6d" x="737.410156"/>
      <use xlink:href="#DejaVuSans-70" x="834.822266"/>
      <use xlink:href="#DejaVuSans-65" x="898.298828"/>
      <use xlink:href="#DejaVuSans-72" x="959.822266"/>
      <use xlink:href="#DejaVuSans-61" x="1000.935547"/>
      <use xlink:href="#DejaVuSans-74" x="1062.214844"/>
      <use xlink:href="#DejaVuSans-75" x="1101.423828"/>
      <use xlink:href="#DejaVuSans-72" x="1164.802734"/>
      <use xlink:href="#DejaVuSans-65" x="1203.666016"/>
      <use xlink:href="#DejaVuSans-20" x="1265.189453"/>
      <use xlink:href="#DejaVuSans-3d" x="1296.976562"/>
      <use xlink:href="#DejaVuSans-20" x="1380.765625"/>
      <use xlink:href="#DejaVuSans-32" x="1412.552734"/>
      <use xlink:href="#DejaVuSans-37" x="1476.175781"/>
     </g>
    </g>
    <g id="line2d_41">
     <path d="M 425.54855 132.723437 
L 435.54855 132.723437 
L 445.54855 132.723437 
" style="fill: none; stroke: #bcbd22; stroke-width: 1.5; stroke-linecap: square"/>
    </g>
    <g id="text_26">
     <!-- corner = tt, temperature = 27 -->
     <g transform="translate(453.54855 136.223437) scale(0.1 -0.1)">
      <use xlink:href="#DejaVuSans-63"/>
      <use xlink:href="#DejaVuSans-6f" x="54.980469"/>
      <use xlink:href="#DejaVuSans-72" x="116.162109"/>
      <use xlink:href="#DejaVuSans-6e" x="155.525391"/>
      <use xlink:href="#DejaVuSans-65" x="218.904297"/>
      <use xlink:href="#DejaVuSans-72" x="280.427734"/>
      <use xlink:href="#DejaVuSans-20" x="321.541016"/>
      <use xlink:href="#DejaVuSans-3d" x="353.328125"/>
      <use xlink:href="#DejaVuSans-20" x="437.117188"/>
      <use xlink:href="#DejaVuSans-74" x="468.904297"/>
      <use xlink:href="#DejaVuSans-74" x="508.113281"/>
      <use xlink:href="#DejaVuSans-2c" x="547.322266"/>
      <use xlink:href="#DejaVuSans-20" x="579.109375"/>
      <use xlink:href="#DejaVuSans-74" x="610.896484"/>
      <use xlink:href="#DejaVuSans-65" x="650.105469"/>
      <use xlink:href="#DejaVuSans-6d" x="711.628906"/>
      <use xlink:href="#DejaVuSans-70" x="809.041016"/>
      <use xlink:href="#DejaVuSans-65" x="872.517578"/>
      <use xlink:href="#DejaVuSans-72" x="934.041016"/>
      <use xlink:href="#DejaVuSans-61" x="975.154297"/>
      <use xlink:href="#DejaVuSans-74" x="1036.433594"/>
      <use xlink:href="#DejaVuSans-75" x="1075.642578"/>
      <use xlink:href="#DejaVuSans-72" x="1139.021484"/>
      <use xlink:href="#DejaVuSans-65" x="1177.884766"/>
      <use xlink:href="#DejaVuSans-20" x="1239.408203"/>
      <use xlink:href="#DejaVuSans-3d" x="1271.195312"/>
      <use xlink:href="#DejaVuSans-20" x="1354.984375"/>
      <use xlink:href="#DejaVuSans-32" x="1386.771484"/>
      <use xlink:href="#DejaVuSans-37" x="1450.394531"/>
     </g>
    </g>
    <g id="line2d_42">
     <path d="M 425.54855 147.401562 
L 435.54855 147.401562 
L 445.54855 147.401562 
" style="fill: none; stroke: #17becf; stroke-width: 1.5; stroke-linecap: square"/>
    </g>
    <g id="text_27">
     <!-- corner = tt, temperature = 27 -->
     <g transform="translate(453.54855 150.901562) scale(0.1 -0.1)">
      <use xlink:href="#DejaVuSans-63"/>
      <use xlink:href="#DejaVuSans-6f" x="54.980469"/>
      <use xlink:href="#DejaVuSans-72" x="116.162109"/>
      <use xlink:href="#DejaVuSans-6e" x="155.525391"/>
      <use xlink:href="#DejaVuSans-65" x="218.904297"/>
      <use xlink:href="#DejaVuSans-72" x="280.427734"/>
      <use xlink:href="#DejaVuSans-20" x="321.541016"/>
      <use xlink:href="#DejaVuSans-3d" x="353.328125"/>
      <use xlink:href="#DejaVuSans-20" x="437.117188"/>
      <use xlink:href="#DejaVuSans-74" x="468.904297"/>
      <use xlink:href="#DejaVuSans-74" x="508.113281"/>
      <use xlink:href="#DejaVuSans-2c" x="547.322266"/>
      <use xlink:href="#DejaVuSans-20" x="579.109375"/>
      <use xlink:href="#DejaVuSans-74" x="610.896484"/>
      <use xlink:href="#DejaVuSans-65" x="650.105469"/>
      <use xlink:href="#DejaVuSans-6d" x="711.628906"/>
      <use xlink:href="#DejaVuSans-70" x="809.041016"/>
      <use xlink:href="#DejaVuSans-65" x="872.517578"/>
      <use xlink:href="#DejaVuSans-72" x="934.041016"/>
      <use xlink:href="#DejaVuSans-61" x="975.154297"/>
      <use xlink:href="#DejaVuSans-74" x="1036.433594"/>
      <use xlink:href="#DejaVuSans-75" x="1075.642578"/>
      <use xlink:href="#DejaVuSans-72" x="1139.021484"/>
      <use xlink:href="#DejaVuSans-65" x="1177.884766"/>
      <use xlink:href="#DejaVuSans-20" x="1239.408203"/>
      <use xlink:href="#DejaVuSans-3d" x="1271.195312"/>
      <use xlink:href="#DejaVuSans-20" x="1354.984375"/>
      <use xlink:href="#DejaVuSans-32" x="1386.771484"/>
      <use xlink:href="#DejaVuSans-37" x="1450.394531"/>
     </g>
    </g>
    <g id="line2d_43">
     <path d="M 425.54855 162.079687 
L 435.54855 162.079687 
L 445.54855 162.079687 
" style="fill: none; stroke: #1f77b4; stroke-width: 1.5; stroke-linecap: square"/>
    </g>
    <g id="text_28">
     <!-- corner = ff, temperature = 27 -->
     <g transform="translate(453.54855 165.579687) scale(0.1 -0.1)">
      <use xlink:href="#DejaVuSans-63"/>
      <use xlink:href="#DejaVuSans-6f" x="54.980469"/>
      <use xlink:href="#DejaVuSans-72" x="116.162109"/>
      <use xlink:href="#DejaVuSans-6e" x="155.525391"/>
      <use xlink:href="#DejaVuSans-65" x="218.904297"/>
      <use xlink:href="#DejaVuSans-72" x="280.427734"/>
      <use xlink:href="#DejaVuSans-20" x="321.541016"/>
      <use xlink:href="#DejaVuSans-3d" x="353.328125"/>
      <use xlink:href="#DejaVuSans-20" x="437.117188"/>
      <use xlink:href="#DejaVuSans-66" x="468.904297"/>
      <use xlink:href="#DejaVuSans-66" x="504.109375"/>
      <use xlink:href="#DejaVuSans-2c" x="539.314453"/>
      <use xlink:href="#DejaVuSans-20" x="571.101562"/>
      <use xlink:href="#DejaVuSans-74" x="602.888672"/>
      <use xlink:href="#DejaVuSans-65" x="642.097656"/>
      <use xlink:href="#DejaVuSans-6d" x="703.621094"/>
      <use xlink:href="#DejaVuSans-70" x="801.033203"/>
      <use xlink:href="#DejaVuSans-65" x="864.509766"/>
      <use xlink:href="#DejaVuSans-72" x="926.033203"/>
      <use xlink:href="#DejaVuSans-61" x="967.146484"/>
      <use xlink:href="#DejaVuSans-74" x="1028.425781"/>
      <use xlink:href="#DejaVuSans-75" x="1067.634766"/>
      <use xlink:href="#DejaVuSans-72" x="1131.013672"/>
      <use xlink:href="#DejaVuSans-65" x="1169.876953"/>
      <use xlink:href="#DejaVuSans-20" x="1231.400391"/>
      <use xlink:href="#DejaVuSans-3d" x="1263.1875"/>
      <use xlink:href="#DejaVuSans-20" x="1346.976562"/>
      <use xlink:href="#DejaVuSans-32" x="1378.763672"/>
      <use xlink:href="#DejaVuSans-37" x="1442.386719"/>
     </g>
    </g>
    <g id="line2d_44">
     <path d="M 425.54855 176.757812 
L 435.54855 176.757812 
L 445.54855 176.757812 
" style="fill: none; stroke: #ff7f0e; stroke-width: 1.5; stroke-linecap: square"/>
    </g>
    <g id="text_29">
     <!-- corner = ff, temperature = 27 -->
     <g transform="translate(453.54855 180.257812) scale(0.1 -0.1)">
      <use xlink:href="#DejaVuSans-63"/>
      <use xlink:href="#DejaVuSans-6f" x="54.980469"/>
      <use xlink:href="#DejaVuSans-72" x="116.162109"/>
      <use xlink:href="#DejaVuSans-6e" x="155.525391"/>
      <use xlink:href="#DejaVuSans-65" x="218.904297"/>
      <use xlink:href="#DejaVuSans-72" x="280.427734"/>
      <use xlink:href="#DejaVuSans-20" x="321.541016"/>
      <use xlink:href="#DejaVuSans-3d" x="353.328125"/>
      <use xlink:href="#DejaVuSans-20" x="437.117188"/>
      <use xlink:href="#DejaVuSans-66" x="468.904297"/>
      <use xlink:href="#DejaVuSans-66" x="504.109375"/>
      <use xlink:href="#DejaVuSans-2c" x="539.314453"/>
      <use xlink:href="#DejaVuSans-20" x="571.101562"/>
      <use xlink:href="#DejaVuSans-74" x="602.888672"/>
      <use xlink:href="#DejaVuSans-65" x="642.097656"/>
      <use xlink:href="#DejaVuSans-6d" x="703.621094"/>
      <use xlink:href="#DejaVuSans-70" x="801.033203"/>
      <use xlink:href="#DejaVuSans-65" x="864.509766"/>
      <use xlink:href="#DejaVuSans-72" x="926.033203"/>
      <use xlink:href="#DejaVuSans-61" x="967.146484"/>
      <use xlink:href="#DejaVuSans-74" x="1028.425781"/>
      <use xlink:href="#DejaVuSans-75" x="1067.634766"/>
      <use xlink:href="#DejaVuSans-72" x="1131.013672"/>
      <use xlink:href="#DejaVuSans-65" x="1169.876953"/>
      <use xlink:href="#DejaVuSans-20" x="1231.400391"/>
      <use xlink:href="#DejaVuSans-3d" x="1263.1875"/>
      <use xlink:href="#DejaVuSans-20" x="1346.976562"/>
      <use xlink:href="#DejaVuSans-32" x="1378.763672"/>
      <use xlink:href="#DejaVuSans-37" x="1442.386719"/>
     </g>
    </g>
    <g id="line2d_45">
     <path d="M 425.54855 191.435937 
L 435.54855 191.435937 
L 445.54855 191.435937 
" style="fill: none; stroke: #2ca02c; stroke-width: 1.5; stroke-linecap: square"/>
    </g>
    <g id="text_30">
     <!-- corner = ss, temperature = 130 -->
     <g transform="translate(453.54855 194.935937) scale(0.1 -0.1)">
      <use xlink:href="#DejaVuSans-63"/>
      <use xlink:href="#DejaVuSans-6f" x="54.980469"/>
      <use xlink:href="#DejaVuSans-72" x="116.162109"/>
      <use xlink:href="#DejaVuSans-6e" x="155.525391"/>
      <use xlink:href="#DejaVuSans-65" x="218.904297"/>
      <use xlink:href="#DejaVuSans-72" x="280.427734"/>
      <use xlink:href="#DejaVuSans-20" x="321.541016"/>
      <use xlink:href="#DejaVuSans-3d" x="353.328125"/>
      <use xlink:href="#DejaVuSans-20" x="437.117188"/>
      <use xlink:href="#DejaVuSans-73" x="468.904297"/>
      <use xlink:href="#DejaVuSans-73" x="521.003906"/>
      <use xlink:href="#DejaVuSans-2c" x="573.103516"/>
      <use xlink:href="#DejaVuSans-20" x="604.890625"/>
      <use xlink:href="#DejaVuSans-74" x="636.677734"/>
      <use xlink:href="#DejaVuSans-65" x="675.886719"/>
      <use xlink:href="#DejaVuSans-6d" x="737.410156"/>
      <use xlink:href="#DejaVuSans-70" x="834.822266"/>
      <use xlink:href="#DejaVuSans-65" x="898.298828"/>
      <use xlink:href="#DejaVuSans-72" x="959.822266"/>
      <use xlink:href="#DejaVuSans-61" x="1000.935547"/>
      <use xlink:href="#DejaVuSans-74" x="1062.214844"/>
      <use xlink:href="#DejaVuSans-75" x="1101.423828"/>
      <use xlink:href="#DejaVuSans-72" x="1164.802734"/>
      <use xlink:href="#DejaVuSans-65" x="1203.666016"/>
      <use xlink:href="#DejaVuSans-20" x="1265.189453"/>
      <use xlink:href="#DejaVuSans-3d" x="1296.976562"/>
      <use xlink:href="#DejaVuSans-20" x="1380.765625"/>
      <use xlink:href="#DejaVuSans-31" x="1412.552734"/>
      <use xlink:href="#DejaVuSans-33" x="1476.175781"/>
      <use xlink:href="#DejaVuSans-30" x="1539.798828"/>
     </g>
    </g>
    <g id="line2d_46">
     <path d="M 425.54855 206.114062 
L 435.54855 206.114062 
L 445.54855 206.114062 
" style="fill: none; stroke: #d62728; stroke-width: 1.5; stroke-linecap: square"/>
    </g>
    <g id="text_31">
     <!-- corner = ss, temperature = 130 -->
     <g transform="translate(453.54855 209.614062) scale(0.1 -0.1)">
      <use xlink:href="#DejaVuSans-63"/>
      <use xlink:href="#DejaVuSans-6f" x="54.980469"/>
      <use xlink:href="#DejaVuSans-72" x="116.162109"/>
      <use xlink:href="#DejaVuSans-6e" x="155.525391"/>
      <use xlink:href="#DejaVuSans-65" x="218.904297"/>
      <use xlink:href="#DejaVuSans-72" x="280.427734"/>
      <use xlink:href="#DejaVuSans-20" x="321.541016"/>
      <use xlink:href="#DejaVuSans-3d" x="353.328125"/>
      <use xlink:href="#DejaVuSans-20" x="437.117188"/>
      <use xlink:href="#DejaVuSans-73" x="468.904297"/>
      <use xlink:href="#DejaVuSans-73" x="521.003906"/>
      <use xlink:href="#DejaVuSans-2c" x="573.103516"/>
      <use xlink:href="#DejaVuSans-20" x="604.890625"/>
      <use xlink:href="#DejaVuSans-74" x="636.677734"/>
      <use xlink:href="#DejaVuSans-65" x="675.886719"/>
      <use xlink:href="#DejaVuSans-6d" x="737.410156"/>
      <use xlink:href="#DejaVuSans-70" x="834.822266"/>
      <use xlink:href="#DejaVuSans-65" x="898.298828"/>
      <use xlink:href="#DejaVuSans-72" x="959.822266"/>
      <use xlink:href="#DejaVuSans-61" x="1000.935547"/>
      <use xlink:href="#DejaVuSans-74" x="1062.214844"/>
      <use xlink:href="#DejaVuSans-75" x="1101.423828"/>
      <use xlink:href="#DejaVuSans-72" x="1164.802734"/>
      <use xlink:href="#DejaVuSans-65" x="1203.666016"/>
      <use xlink:href="#DejaVuSans-20" x="1265.189453"/>
      <use xlink:href="#DejaVuSans-3d" x="1296.976562"/>
      <use xlink:href="#DejaVuSans-20" x="1380.765625"/>
      <use xlink:href="#DejaVuSans-31" x="1412.552734"/>
      <use xlink:href="#DejaVuSans-33" x="1476.175781"/>
      <use xlink:href="#DejaVuSans-30" x="1539.798828"/>
     </g>
    </g>
    <g id="line2d_47">
     <path d="M 425.54855 220.792187 
L 435.54855 220.792187 
L 445.54855 220.792187 
" style="fill: none; stroke: #9467bd; stroke-width: 1.5; stroke-linecap: square"/>
    </g>
    <g id="text_32">
     <!-- corner = tt, temperature = 130 -->
     <g transform="translate(453.54855 224.292187) scale(0.1 -0.1)">
      <use xlink:href="#DejaVuSans-63"/>
      <use xlink:href="#DejaVuSans-6f" x="54.980469"/>
      <use xlink:href="#DejaVuSans-72" x="116.162109"/>
      <use xlink:href="#DejaVuSans-6e" x="155.525391"/>
      <use xlink:href="#DejaVuSans-65" x="218.904297"/>
      <use xlink:href="#DejaVuSans-72" x="280.427734"/>
      <use xlink:href="#DejaVuSans-20" x="321.541016"/>
      <use xlink:href="#DejaVuSans-3d" x="353.328125"/>
      <use xlink:href="#DejaVuSans-20" x="437.117188"/>
      <use xlink:href="#DejaVuSans-74" x="468.904297"/>
      <use xlink:href="#DejaVuSans-74" x="508.113281"/>
      <use xlink:href="#DejaVuSans-2c" x="547.322266"/>
      <use xlink:href="#DejaVuSans-20" x="579.109375"/>
      <use xlink:href="#DejaVuSans-74" x="610.896484"/>
      <use xlink:href="#DejaVuSans-65" x="650.105469"/>
      <use xlink:href="#DejaVuSans-6d" x="711.628906"/>
      <use xlink:href="#DejaVuSans-70" x="809.041016"/>
      <use xlink:href="#DejaVuSans-65" x="872.517578"/>
      <use xlink:href="#DejaVuSans-72" x="934.041016"/>
      <use xlink:href="#DejaVuSans-61" x="975.154297"/>
      <use xlink:href="#DejaVuSans-74" x="1036.433594"/>
      <use xlink:href="#DejaVuSans-75" x="1075.642578"/>
      <use xlink:href="#DejaVuSans-72" x="1139.021484"/>
      <use xlink:href="#DejaVuSans-65" x="1177.884766"/>
      <use xlink:href="#DejaVuSans-20" x="1239.408203"/>
      <use xlink:href="#DejaVuSans-3d" x="1271.195312"/>
      <use xlink:href="#DejaVuSans-20" x="1354.984375"/>
      <use xlink:href="#DejaVuSans-31" x="1386.771484"/>
      <use xlink:href="#DejaVuSans-33" x="1450.394531"/>
      <use xlink:href="#DejaVuSans-30" x="1514.017578"/>
     </g>
    </g>
    <g id="line2d_48">
     <path d="M 425.54855 235.470312 
L 435.54855 235.470312 
L 445.54855 235.470312 
" style="fill: none; stroke: #8c564b; stroke-width: 1.5; stroke-linecap: square"/>
    </g>
    <g id="text_33">
     <!-- corner = tt, temperature = 130 -->
     <g transform="translate(453.54855 238.970312) scale(0.1 -0.1)">
      <use xlink:href="#DejaVuSans-63"/>
      <use xlink:href="#DejaVuSans-6f" x="54.980469"/>
      <use xlink:href="#DejaVuSans-72" x="116.162109"/>
      <use xlink:href="#DejaVuSans-6e" x="155.525391"/>
      <use xlink:href="#DejaVuSans-65" x="218.904297"/>
      <use xlink:href="#DejaVuSans-72" x="280.427734"/>
      <use xlink:href="#DejaVuSans-20" x="321.541016"/>
      <use xlink:href="#DejaVuSans-3d" x="353.328125"/>
      <use xlink:href="#DejaVuSans-20" x="437.117188"/>
      <use xlink:href="#DejaVuSans-74" x="468.904297"/>
      <use xlink:href="#DejaVuSans-74" x="508.113281"/>
      <use xlink:href="#DejaVuSans-2c" x="547.322266"/>
      <use xlink:href="#DejaVuSans-20" x="579.109375"/>
      <use xlink:href="#DejaVuSans-74" x="610.896484"/>
      <use xlink:href="#DejaVuSans-65" x="650.105469"/>
      <use xlink:href="#DejaVuSans-6d" x="711.628906"/>
      <use xlink:href="#DejaVuSans-70" x="809.041016"/>
      <use xlink:href="#DejaVuSans-65" x="872.517578"/>
      <use xlink:href="#DejaVuSans-72" x="934.041016"/>
      <use xlink:href="#DejaVuSans-61" x="975.154297"/>
      <use xlink:href="#DejaVuSans-74" x="1036.433594"/>
      <use xlink:href="#DejaVuSans-75" x="1075.642578"/>
      <use xlink:href="#DejaVuSans-72" x="1139.021484"/>
      <use xlink:href="#DejaVuSans-65" x="1177.884766"/>
      <use xlink:href="#DejaVuSans-20" x="1239.408203"/>
      <use xlink:href="#DejaVuSans-3d" x="1271.195312"/>
      <use xlink:href="#DejaVuSans-20" x="1354.984375"/>
      <use xlink:href="#DejaVuSans-31" x="1386.771484"/>
      <use xlink:href="#DejaVuSans-33" x="1450.394531"/>
      <use xlink:href="#DejaVuSans-30" x="1514.017578"/>
     </g>
    </g>
    <g id="line2d_49">
     <path d="M 425.54855 250.148437 
L 435.54855 250.148437 
L 445.54855 250.148437 
" style="fill: none; stroke: #e377c2; stroke-width: 1.5; stroke-linecap: square"/>
    </g>
    <g id="text_34">
     <!-- corner = ff, temperature = 130 -->
     <g transform="translate(453.54855 253.648437) scale(0.1 -0.1)">
      <use xlink:href="#DejaVuSans-63"/>
      <use xlink:href="#DejaVuSans-6f" x="54.980469"/>
      <use xlink:href="#DejaVuSans-72" x="116.162109"/>
      <use xlink:href="#DejaVuSans-6e" x="155.525391"/>
      <use xlink:href="#DejaVuSans-65" x="218.904297"/>
      <use xlink:href="#DejaVuSans-72" x="280.427734"/>
      <use xlink:href="#DejaVuSans-20" x="321.541016"/>
      <use xlink:href="#DejaVuSans-3d" x="353.328125"/>
      <use xlink:href="#DejaVuSans-20" x="437.117188"/>
      <use xlink:href="#DejaVuSans-66" x="468.904297"/>
      <use xlink:href="#DejaVuSans-66" x="504.109375"/>
      <use xlink:href="#DejaVuSans-2c" x="539.314453"/>
      <use xlink:href="#DejaVuSans-20" x="571.101562"/>
      <use xlink:href="#DejaVuSans-74" x="602.888672"/>
      <use xlink:href="#DejaVuSans-65" x="642.097656"/>
      <use xlink:href="#DejaVuSans-6d" x="703.621094"/>
      <use xlink:href="#DejaVuSans-70" x="801.033203"/>
      <use xlink:href="#DejaVuSans-65" x="864.509766"/>
      <use xlink:href="#DejaVuSans-72" x="926.033203"/>
      <use xlink:href="#DejaVuSans-61" x="967.146484"/>
      <use xlink:href="#DejaVuSans-74" x="1028.425781"/>
      <use xlink:href="#DejaVuSans-75" x="1067.634766"/>
      <use xlink:href="#DejaVuSans-72" x="1131.013672"/>
      <use xlink:href="#DejaVuSans-65" x="1169.876953"/>
      <use xlink:href="#DejaVuSans-20" x="1231.400391"/>
      <use xlink:href="#DejaVuSans-3d" x="1263.1875"/>
      <use xlink:href="#DejaVuSans-20" x="1346.976562"/>
      <use xlink:href="#DejaVuSans-31" x="1378.763672"/>
      <use xlink:href="#DejaVuSans-33" x="1442.386719"/>
      <use xlink:href="#DejaVuSans-30" x="1506.009766"/>
     </g>
    </g>
    <g id="line2d_50">
     <path d="M 425.54855 264.826562 
L 435.54855 264.826562 
L 445.54855 264.826562 
" style="fill: none; stroke: #7f7f7f; stroke-width: 1.5; stroke-linecap: square"/>
    </g>
    <g id="text_35">
     <!-- corner = ff, temperature = 130 -->
     <g transform="translate(453.54855 268.326562) scale(0.1 -0.1)">
      <use xlink:href="#DejaVuSans-63"/>
      <use xlink:href="#DejaVuSans-6f" x="54.980469"/>
      <use xlink:href="#DejaVuSans-72" x="116.162109"/>
      <use xlink:href="#DejaVuSans-6e" x="155.525391"/>
      <use xlink:href="#DejaVuSans-65" x="218.904297"/>
      <use xlink:href="#DejaVuSans-72" x="280.427734"/>
      <use xlink:href="#DejaVuSans-20" x="321.541016"/>
      <use xlink:href="#DejaVuSans-3d" x="353.328125"/>
      <use xlink:href="#DejaVuSans-20" x="437.117188"/>
      <use xlink:href="#DejaVuSans-66" x="468.904297"/>
      <use xlink:href="#DejaVuSans-66" x="504.109375"/>
      <use xlink:href="#DejaVuSans-2c" x="539.314453"/>
      <use xlink:href="#DejaVuSans-20" x="571.101562"/>
      <use xlink:href="#DejaVuSans-74" x="602.888672"/>
      <use xlink:href="#DejaVuSans-65" x="642.097656"/>
      <use xlink:href="#DejaVuSans-6d" x="703.621094"/>
      <use xlink:href="#DejaVuSans-70" x="801.033203"/>
      <use xlink:href="#DejaVuSans-65" x="864.509766"/>
      <use xlink:href="#DejaVuSans-72" x="926.033203"/>
      <use xlink:href="#DejaVuSans-61" x="967.146484"/>
      <use xlink:href="#DejaVuSans-74" x="1028.425781"/>
      <use xlink:href="#DejaVuSans-75" x="1067.634766"/>
      <use xlink:href="#DejaVuSans-72" x="1131.013672"/>
      <use xlink:href="#DejaVuSans-65" x="1169.876953"/>
      <use xlink:href="#DejaVuSans-20" x="1231.400391"/>
      <use xlink:href="#DejaVuSans-3d" x="1263.1875"/>
      <use xlink:href="#DejaVuSans-20" x="1346.976562"/>
      <use xlink:href="#DejaVuSans-31" x="1378.763672"/>
      <use xlink:href="#DejaVuSans-33" x="1442.386719"/>
      <use xlink:href="#DejaVuSans-30" x="1506.009766"/>
     </g>
    </g>
   </g>
  </g>
 </g>
 <defs>
  <clipPath id="pfd70cb3118">
   <rect x="50.14375" y="7.2" width="357.12" height="266.112"/>
  </clipPath>
 </defs>
</svg>
